<svg width="23" height="17" viewBox="0 0 23 17" fill="none" xmlns="http://www.w3.org/2000/svg">
<path d="M7.89354 1.89615C8.33353 1.46512 8.3367 0.763135 7.90062 0.328235C7.46453 -0.106665 6.75434 -0.109797 6.31434 0.32124L3.6302 2.95075C2.61925 3.9411 1.79298 4.75052 1.20701 5.47172C0.59767 6.22168 0.156578 6.9829 0.0387487 7.89663C-0.0129162 8.29728 -0.0129162 8.70272 0.0387486 9.10337C0.156578 10.0171 0.597669 10.7783 1.20701 11.5283C1.79298 12.2495 2.61925 13.0589 3.63022 14.0493L6.31434 16.6788C6.75433 17.1098 7.46453 17.1067 7.90062 16.6718C8.3367 16.2369 8.33353 15.5349 7.89354 15.1038L5.2569 12.5209C4.18683 11.4726 3.45281 10.7511 2.95613 10.1398C2.79471 9.94116 2.66878 9.76627 2.571 9.6087H21.8783C22.4978 9.6087 23 9.11232 23 8.5C23 7.88768 22.4978 7.3913 21.8783 7.3913H2.571C2.66878 7.23373 2.79471 7.05884 2.95613 6.86017C3.45281 6.24887 4.18683 5.52742 5.2569 4.47913L7.89354 1.89615Z" fill="#0E54EC"/>
</svg>
