<svg width="18" height="23" viewBox="0 0 18 23" fill="none" xmlns="http://www.w3.org/2000/svg">
<path fill-rule="evenodd" clip-rule="evenodd" d="M13.9417 2.40688C12.9691 1.8453 12.158 1.37701 11.4642 1.09184C10.7318 0.790835 10.0022 0.637579 9.22446 0.845971C8.44673 1.05436 7.89149 1.5519 7.40775 2.17875C6.94944 2.77264 6.48121 3.58371 5.91969 4.55636L1.07517 12.9472C0.749464 13.5102 0.483409 13.9702 0.348932 14.4641C0.329722 14.5347 0.313196 14.6059 0.299565 14.6783C0.190522 15.257 0.279504 15.838 0.392041 16.5729L0.422365 16.7715C0.630097 18.1357 0.801322 19.2602 1.05957 20.1129C1.32966 21.0047 1.74485 21.7766 2.56144 22.248C3.37803 22.7195 4.25411 22.6931 5.16147 22.4811C6.02906 22.2784 7.08847 21.8645 8.37376 21.3623L8.56094 21.2892C9.2536 21.0193 9.80129 20.8058 10.248 20.422C10.6947 20.0382 10.9882 19.5289 11.3593 18.8848L16.2037 10.4939C16.7653 9.52126 17.2336 8.71021 17.5188 8.01636C17.8198 7.284 17.973 6.55438 17.7647 5.77665C17.5563 4.99892 17.0587 4.44368 16.4319 3.95993C15.838 3.50163 15.0269 3.0334 14.0543 2.47188L13.9417 2.40688ZM14.0787 10.4246L7.04224 6.36205L2.76294 13.774C2.29674 14.5815 2.18459 14.8002 2.14215 15.0254C2.0997 15.2507 2.12459 15.4952 2.26498 16.4169C2.48654 17.8716 2.63958 18.8612 2.85407 19.5694C3.06128 20.2535 3.27495 20.4949 3.49894 20.6242C3.72294 20.7535 4.0388 20.8179 4.73489 20.6553C5.45549 20.4869 6.38894 20.1247 7.75953 19.5892C8.628 19.2499 8.85218 19.1492 9.02604 18.9998C9.1999 18.8505 9.3332 18.644 9.7994 17.8365L14.0787 10.4246ZM15.0142 8.79962C15.3656 8.18055 15.6189 7.70664 15.7845 7.30359C16.0058 6.76527 16.0132 6.48446 15.9535 6.26194C15.8939 6.03942 15.7471 5.79991 15.2864 5.44433C14.804 5.07213 14.104 4.66568 13.0605 4.06318C12.0169 3.46067 11.3149 3.05767 10.7514 2.82607C10.2131 2.60482 9.93227 2.59746 9.70975 2.65708C9.48723 2.71671 9.24772 2.86349 8.89215 3.32426C8.62592 3.66924 8.34218 4.1256 7.9817 4.73939L15.0142 8.79962Z" fill="#0E54EC"/>
</svg>
