<svg width="11" height="13" viewBox="0 0 11 13" fill="none" xmlns="http://www.w3.org/2000/svg">
<path d="M5.5 2.0625C5.22386 2.0625 5 2.28636 5 2.5625C5 2.83864 5.22386 3.0625 5.5 3.0625V2.0625ZM10 3.0625C10.2761 3.0625 10.5 2.83864 10.5 2.5625C10.5 2.28636 10.2761 2.0625 10 2.0625V3.0625ZM5.5 9.9375C5.22386 9.9375 5 10.1614 5 10.4375C5 10.7136 5.22386 10.9375 5.5 10.9375V9.9375ZM10 10.9375C10.2761 10.9375 10.5 10.7136 10.5 10.4375C10.5 10.1614 10.2761 9.9375 10 9.9375V10.9375ZM5.5 7C5.77614 7 6 6.77614 6 6.5C6 6.22386 5.77614 6 5.5 6V7ZM1 6C0.723858 6 0.5 6.22386 0.5 6.5C0.5 6.77614 0.723858 7 1 7L1 6ZM5.5 2.5625V3.0625L10 3.0625V2.5625V2.0625L5.5 2.0625V2.5625ZM5.5 10.4375V10.9375H10V10.4375V9.9375H5.5V10.4375ZM5.5 6.5V6L1 6L1 6.5L1 7L5.5 7V6.5ZM1 2.5625H0.5C0.5 3.45996 1.22754 4.1875 2.125 4.1875V3.6875V3.1875C1.77982 3.1875 1.5 2.90768 1.5 2.5625H1ZM2.125 3.6875V4.1875C3.02246 4.1875 3.75 3.45996 3.75 2.5625H3.25H2.75C2.75 2.90768 2.47018 3.1875 2.125 3.1875V3.6875ZM3.25 2.5625H3.75C3.75 1.66504 3.02246 0.9375 2.125 0.9375V1.4375V1.9375C2.47018 1.9375 2.75 2.21732 2.75 2.5625H3.25ZM2.125 1.4375V0.9375C1.22754 0.9375 0.5 1.66504 0.5 2.5625H1H1.5C1.5 2.21732 1.77982 1.9375 2.125 1.9375V1.4375ZM1 10.4375H0.5C0.5 11.335 1.22754 12.0625 2.125 12.0625V11.5625V11.0625C1.77982 11.0625 1.5 10.7827 1.5 10.4375H1ZM2.125 11.5625V12.0625C3.02246 12.0625 3.75 11.335 3.75 10.4375H3.25H2.75C2.75 10.7827 2.47018 11.0625 2.125 11.0625V11.5625ZM3.25 10.4375H3.75C3.75 9.54004 3.02246 8.8125 2.125 8.8125V9.3125V9.8125C2.47018 9.8125 2.75 10.0923 2.75 10.4375H3.25ZM2.125 9.3125V8.8125C1.22754 8.8125 0.5 9.54004 0.5 10.4375H1H1.5C1.5 10.0923 1.77982 9.8125 2.125 9.8125V9.3125ZM10 6.5H10.5C10.5 5.60254 9.77246 4.875 8.875 4.875V5.375V5.875C9.22018 5.875 9.5 6.15482 9.5 6.5H10ZM8.875 5.375V4.875C7.97754 4.875 7.25 5.60254 7.25 6.5H7.75H8.25C8.25 6.15482 8.52982 5.875 8.875 5.875V5.375ZM7.75 6.5H7.25C7.25 7.39746 7.97754 8.125 8.875 8.125V7.625V7.125C8.52982 7.125 8.25 6.84518 8.25 6.5H7.75ZM8.875 7.625V8.125C9.77246 8.125 10.5 7.39746 10.5 6.5H10H9.5C9.5 6.84518 9.22018 7.125 8.875 7.125V7.625Z" fill="#02AFFF"/>
</svg>
