<svg width="11" height="11" viewBox="0 0 11 11" fill="none" xmlns="http://www.w3.org/2000/svg">
<g clip-path="url(#clip0_1_3047)">
<path d="M4.58328 7.82392C4.39343 7.82392 4.23953 7.97782 4.23953 8.16767C4.23953 8.35752 4.39343 8.51142 4.58328 8.51142H6.41661C6.60646 8.51142 6.76036 8.35752 6.76036 8.16767C6.76036 7.97782 6.60646 7.82392 6.41661 7.82392H4.58328Z" fill="#02AFFF"/>
<path fill-rule="evenodd" clip-rule="evenodd" d="M5.59656 0.575014C5.53217 0.572652 5.46772 0.572652 5.40333 0.575014C4.97828 0.590607 4.59554 0.735141 4.17588 0.975739C3.76693 1.2102 3.29611 1.55228 2.69873 1.98631L2.66625 2.0099C2.06886 2.44392 1.59804 2.786 1.24867 3.10248C0.890168 3.42725 0.634434 3.74659 0.488257 4.14602C0.466114 4.20653 0.446197 4.26783 0.428546 4.32979C0.312029 4.73886 0.331216 5.14753 0.430358 5.62099C0.526973 6.08239 0.706814 6.63587 0.935 7.33814L0.947405 7.37632C1.17558 8.07858 1.35542 8.63208 1.54845 9.06214C1.74654 9.50345 1.97123 9.84535 2.30594 10.1078C2.35664 10.1476 2.40878 10.1854 2.46226 10.2214C2.8153 10.4586 3.2099 10.5666 3.69082 10.6187C4.15949 10.6694 4.74146 10.6694 5.47987 10.6693H5.52002C6.25843 10.6694 6.84039 10.6694 7.30906 10.6187C7.78999 10.5666 8.18459 10.4586 8.53762 10.2214C8.5911 10.1854 8.64325 10.1476 8.69395 10.1078C9.02866 9.84535 9.25334 9.50345 9.45143 9.06214C9.64447 8.63207 9.82431 8.07858 10.0525 7.3763L10.0649 7.33812C10.2931 6.63589 10.4729 6.08237 10.5695 5.62099C10.6687 5.14753 10.6879 4.73886 10.5713 4.32979C10.5537 4.26783 10.5338 4.20653 10.5116 4.14602C10.3655 3.74659 10.1097 3.42725 9.75121 3.10248C9.40184 2.78599 8.93102 2.44392 8.33362 2.0099L8.30115 1.9863C7.70377 1.55227 7.23295 1.2102 6.824 0.975739C6.40435 0.735141 6.02161 0.590607 5.59656 0.575014ZM5.42853 1.26205C5.47612 1.26031 5.52376 1.26031 5.57135 1.26205C5.84426 1.27206 6.11607 1.36234 6.48205 1.57217C6.85503 1.78601 7.29611 2.10589 7.9133 2.55431C8.53049 3.00272 8.97102 3.32336 9.28964 3.612C9.60229 3.89523 9.77215 4.12584 9.866 4.3823C9.88237 4.42702 9.89709 4.47233 9.91014 4.51813C9.98495 4.78077 9.98308 5.06718 9.89662 5.48009C9.80851 5.90089 9.64058 6.41923 9.40483 7.14478C9.16909 7.87033 9.00027 8.38838 8.82422 8.78061C8.65147 9.16548 8.48463 9.39828 8.26973 9.5668C8.23225 9.59618 8.19371 9.62418 8.15418 9.65074C7.92751 9.80305 7.65455 9.88978 7.23513 9.93515C6.80769 9.98138 6.26283 9.98185 5.49994 9.98185C4.73705 9.98185 4.19219 9.98138 3.76476 9.93515C3.34534 9.88978 3.07237 9.80305 2.8457 9.65074C2.80617 9.62418 2.76763 9.59618 2.73016 9.5668C2.51525 9.39828 2.34842 9.16548 2.17567 8.78061C1.99961 8.38838 1.8308 7.87033 1.59505 7.14478C1.35931 6.41923 1.19138 5.90089 1.10326 5.48009C1.0168 5.06718 1.01493 4.78077 1.08975 4.51813C1.10279 4.47233 1.11751 4.42702 1.13388 4.3823C1.22774 4.12584 1.39759 3.89523 1.71024 3.612C2.02887 3.32336 2.4694 3.00272 3.08659 2.55431C3.70378 2.10589 4.14485 1.78601 4.51783 1.57217C4.88381 1.36234 5.15562 1.27206 5.42853 1.26205Z" fill="#02AFFF"/>
</g>
<defs>
<clipPath id="clip0_1_3047">
<rect width="11" height="11" fill="white"/>
</clipPath>
</defs>
</svg>
