<svg width="14" height="12" viewBox="0 0 14 12" fill="none" xmlns="http://www.w3.org/2000/svg">
<path d="M4.16667 1.8112C4.16667 1.53506 3.94281 1.3112 3.66667 1.3112C3.39052 1.3112 3.16667 1.53506 3.16667 1.8112L4.16667 1.8112ZM3.66667 10.4779H4.16667H3.66667ZM1.39179 8.16722C1.22022 7.95084 0.905732 7.91451 0.689353 8.08608C0.472974 8.25764 0.436646 8.57213 0.608211 8.78851L1.39179 8.16722ZM1.9319 9.65318L1.54011 9.96382L1.9319 9.65318ZM5.40143 9.65318L5.00965 9.34253L5.40143 9.65318ZM6.72512 8.78851C6.89669 8.57213 6.86036 8.25764 6.64398 8.08607C6.4276 7.91451 6.11311 7.95084 5.94154 8.16722L6.72512 8.78851ZM3.49956 11.1313L3.42088 11.625H3.42089L3.49956 11.1313ZM3.83378 11.1313L3.91245 11.625H3.91245L3.83378 11.1313ZM9.83333 10.4779C9.83333 10.754 10.0572 10.9779 10.3333 10.9779C10.6095 10.9779 10.8333 10.754 10.8333 10.4779H9.83333ZM10.3333 1.8112H9.83333V1.8112L10.3333 1.8112ZM7.27488 3.50055C7.10331 3.71693 7.13964 4.03142 7.35602 4.20299C7.5724 4.37455 7.88689 4.33822 8.05845 4.12184L7.27488 3.50055ZM8.59856 2.63589L8.20677 2.32524L8.59856 2.63589ZM12.0681 2.63589L12.4599 2.32524L12.0681 2.63589ZM12.6082 4.12185C12.7798 4.33822 13.0943 4.37455 13.3106 4.20299C13.527 4.03142 13.5634 3.71693 13.3918 3.50055L12.6082 4.12185ZM10.1662 1.15779L10.0876 0.664019L10.0875 0.664019L10.1662 1.15779ZM10.5004 1.15779L10.5791 0.664019L10.5791 0.664019L10.5004 1.15779ZM3.66667 1.8112L3.16667 1.8112L3.16667 10.4779H3.66667H4.16667L4.16667 1.8112H3.66667ZM1 8.47786L0.608211 8.78851L1.54011 9.96382L1.9319 9.65318L2.32369 9.34253L1.39179 8.16722L1 8.47786ZM5.40143 9.65318L5.79322 9.96382L6.72512 8.78851L6.33333 8.47786L5.94154 8.16722L5.00965 9.34253L5.40143 9.65318ZM1.9319 9.65318L1.54011 9.96382C1.90411 10.4229 2.20316 10.8013 2.47034 11.0695C2.73975 11.34 3.03877 11.5642 3.42088 11.625L3.49956 11.1313L3.57823 10.6375C3.50744 10.6262 3.39422 10.58 3.17881 10.3638C2.96118 10.1453 2.70286 9.82075 2.32369 9.34253L1.9319 9.65318ZM5.40143 9.65318L5.00965 9.34253C4.63047 9.82074 4.37215 10.1453 4.15452 10.3638C3.93912 10.58 3.8259 10.6262 3.75511 10.6375L3.83378 11.1313L3.91245 11.625C4.29456 11.5642 4.59358 11.34 4.86299 11.0695C5.13017 10.8013 5.42923 10.4229 5.79322 9.96382L5.40143 9.65318ZM10.3333 10.4779H10.8333L10.8333 1.8112H10.3333L9.83333 1.8112L9.83333 10.4779H10.3333ZM7.66667 3.8112L8.05845 4.12184L8.99035 2.94653L8.59856 2.63589L8.20677 2.32524L7.27488 3.50055L7.66667 3.8112ZM12.0681 2.63589L11.6763 2.94653L12.6082 4.12185L13 3.8112L13.3918 3.50055L12.4599 2.32524L12.0681 2.63589ZM8.59856 2.63589L8.99035 2.94653C9.36952 2.46832 9.62784 2.14376 9.84548 1.92529C10.0609 1.70905 10.1741 1.66284 10.2449 1.65156L10.1662 1.15779L10.0875 0.664019C9.70544 0.7249 9.40641 0.949095 9.13701 1.21954C8.86983 1.48775 8.57077 1.86616 8.20677 2.32524L8.59856 2.63589ZM12.0681 2.63589L12.4599 2.32524C12.0959 1.86616 11.7968 1.48776 11.5297 1.21954C11.2602 0.949095 10.9612 0.7249 10.5791 0.664019L10.5004 1.15779L10.4218 1.65156C10.4926 1.66284 10.6058 1.70905 10.8212 1.92529C11.0388 2.14376 11.2971 2.46832 11.6763 2.94653L12.0681 2.63589ZM10.1662 1.15779L10.2449 1.65156C10.2745 1.64685 10.304 1.64453 10.3333 1.64453V1.14453V0.644531C10.2511 0.644531 10.169 0.651049 10.0876 0.664019L10.1662 1.15779ZM10.3333 1.14453V1.64453C10.3627 1.64453 10.3922 1.64685 10.4218 1.65156L10.5004 1.15779L10.5791 0.664019C10.4977 0.651049 10.4156 0.644531 10.3333 0.644531V1.14453ZM10.3333 1.8112H10.8333V1.14453H10.3333H9.83333V1.8112H10.3333ZM3.49956 11.1313L3.42089 11.625C3.50229 11.638 3.58441 11.6445 3.66667 11.6445L3.66667 11.1445L3.66667 10.6445C3.6373 10.6445 3.60779 10.6422 3.57823 10.6375L3.49956 11.1313ZM3.66667 11.1445L3.66667 11.6445C3.74892 11.6445 3.83104 11.638 3.91245 11.625L3.83378 11.1313L3.75511 10.6375C3.72555 10.6422 3.69604 10.6445 3.66667 10.6445L3.66667 11.1445ZM3.66667 10.4779H3.16667V11.1445H3.66667H4.16667V10.4779H3.66667Z" fill="#02AFFF"/>
</svg>
