<svg width="23" height="22" viewBox="0 0 23 22" fill="none" xmlns="http://www.w3.org/2000/svg">
<path d="M10.1787 11.7387L12.6357 6.64355" stroke="black" stroke-width="0.8" stroke-linecap="round" stroke-linejoin="round"/>
<path d="M8.75903 21.5865V16.5518" stroke="black" stroke-width="0.8" stroke-linecap="round" stroke-linejoin="round"/>
<path d="M11.4978 21.5859H6.02002" stroke="black" stroke-width="0.8" stroke-linecap="round" stroke-linejoin="round"/>
<path d="M21.7989 17.1961V19.8947C21.7989 20.3433 21.6207 20.7736 21.3034 21.0909C20.9862 21.4081 20.5559 21.5864 20.1072 21.5864H16.7239C16.2752 21.5864 15.845 21.4081 15.5277 21.0909C15.2105 20.7736 15.0322 20.3433 15.0322 19.8947V17.1961H21.7989ZM15.5458 10.4898L16.8246 9.34191H15.0322V8.33497C15.0322 7.88631 15.2105 7.45603 15.5277 7.13878C15.845 6.82153 16.2752 6.6433 16.7239 6.6433H17.2878V1.01448C17.2864 0.939586 17.3 0.865176 17.3278 0.795595C17.3555 0.726014 17.3968 0.662658 17.4493 0.609225C17.5018 0.555791 17.5645 0.513353 17.6335 0.484387C17.7026 0.455422 17.7768 0.440509 17.8517 0.440521H18.9895C19.0653 0.439156 19.1405 0.453069 19.2108 0.48143C19.281 0.509791 19.3448 0.552018 19.3984 0.605589C19.452 0.65916 19.4942 0.722978 19.5226 0.79323C19.5509 0.863483 19.5648 0.93873 19.5635 1.01448V6.6433H20.1173C20.566 6.6433 20.9962 6.82153 21.3135 7.13878C21.6307 7.45603 21.809 7.88631 21.809 8.33497V10.4898H15.5458Z" stroke="black" stroke-width="0.8" stroke-linecap="round" stroke-linejoin="round"/>
<path d="M15.0322 17.1965V10.9534L15.5458 10.4902H21.7989V17.1965H15.0322Z" stroke="black" stroke-width="0.8" stroke-linecap="round" stroke-linejoin="round"/>
<path d="M16.8347 9.3418L8.75898 16.5515L0.693359 9.3418H16.8347Z" stroke="black" stroke-width="0.8" stroke-linecap="round" stroke-linejoin="round"/>
<path d="M12.3034 13.3897C10.9138 13.1783 9.72563 12.6748 7.95341 12.3123C6.70464 12.0841 5.42034 12.1426 4.19751 12.4835" stroke="black" stroke-width="0.8" stroke-linecap="round" stroke-linejoin="round"/>
</svg>
