<svg width="19" height="19" viewBox="0 0 19 19" fill="none" xmlns="http://www.w3.org/2000/svg">
<g clip-path="url(#clip0_635_130)">
<path d="M12.964 0.477051C13.0059 0.477051 13.0478 0.477051 13.092 0.477051C13.1948 1.74645 12.7103 2.69494 12.1214 3.38181C11.5436 4.06393 10.7524 4.7255 9.47273 4.62512C9.38737 3.3739 9.87268 2.49576 10.4607 1.81047C11.0061 1.17182 12.006 0.603516 12.964 0.477051Z" fill="black"/>
<path d="M16.8378 13.6896C16.8378 13.7022 16.8378 13.7133 16.8378 13.7252C16.4781 14.8143 15.9652 15.7478 15.3392 16.6141C14.7677 17.4006 14.0674 18.4589 12.817 18.4589C11.7365 18.4589 11.0188 17.7641 9.91141 17.7452C8.74002 17.7262 8.09584 18.3261 7.02484 18.4771C6.90232 18.4771 6.77981 18.4771 6.65967 18.4771C5.87321 18.3633 5.23851 17.7404 4.77612 17.1792C3.41266 15.521 2.35905 13.379 2.16302 10.6378C2.16302 10.3691 2.16302 10.1011 2.16302 9.83238C2.24602 7.87059 3.19925 6.27554 4.46628 5.50252C5.13497 5.09151 6.05421 4.74135 7.07779 4.89786C7.51647 4.96583 7.96463 5.11601 8.35747 5.26461C8.72975 5.40767 9.1953 5.66139 9.63635 5.64795C9.93512 5.63926 10.2323 5.48355 10.5335 5.37368C11.4156 5.05515 12.2803 4.68998 13.42 4.8615C14.7898 5.06858 15.762 5.6772 16.3627 6.61621C15.204 7.35366 14.2879 8.46497 14.4444 10.3627C14.5835 12.0866 15.5858 13.0952 16.8378 13.6896Z" fill="black"/>
</g>
<defs>
<clipPath id="clip0_635_130">
<rect width="18" height="18" fill="white" transform="translate(0.5 0.477051)"/>
</clipPath>
</defs>
</svg>
