<svg width="18" height="17" viewBox="0 0 18 17" fill="none" xmlns="http://www.w3.org/2000/svg">
<path fill-rule="evenodd" clip-rule="evenodd" d="M7.81191 1.80933C6.37312 0.89665 4.04951 0.0336031 2.04288 2.07994C-2.72053 6.9376 5.44828 16.2982 9.18794 16.2982C12.9276 16.2982 21.0964 6.9376 16.333 2.07994C14.3264 0.0336256 12.0028 0.896661 10.564 1.80933C9.75105 2.32503 8.62488 2.32503 7.81191 1.80933ZM13.2662 2.80051C12.9333 2.67402 12.5609 2.84132 12.4344 3.17418C12.3079 3.50704 12.4752 3.87942 12.8081 4.00591C13.1182 4.12374 13.4419 4.32339 13.7671 4.6458C14.1812 5.05641 14.4433 5.50645 14.5894 5.98026C14.6944 6.32053 15.0553 6.51131 15.3955 6.40638C15.7358 6.30145 15.9266 5.94055 15.8217 5.60027C15.6122 4.9211 15.2375 4.2878 14.675 3.73009C14.2312 3.29011 13.7568 2.98697 13.2662 2.80051Z" fill="#00AEEF"/>
</svg>
