<svg width="10" height="10" viewBox="0 0 10 10" fill="none" xmlns="http://www.w3.org/2000/svg">
<path fill-rule="evenodd" clip-rule="evenodd" d="M5 3.40909C3.77984 3.40909 2.7907 4.37575 2.7907 5.56818C2.7907 6.76062 3.77984 7.72727 5 7.72727C6.22016 7.72727 7.2093 6.76062 7.2093 5.56818C7.2093 4.37575 6.22016 3.40909 5 3.40909ZM3.48837 5.56818C3.48837 4.75231 4.16515 4.09091 5 4.09091C5.83485 4.09091 6.51163 4.75231 6.51163 5.56818C6.51163 6.38406 5.83485 7.04545 5 7.04545C4.16515 7.04545 3.48837 6.38406 3.48837 5.56818Z" fill="white"/>
<path fill-rule="evenodd" clip-rule="evenodd" d="M3.72093 0C3.07874 0 2.55814 0.508767 2.55814 1.13636V1.21753C2.55814 1.42374 2.38709 1.59091 2.17608 1.59091C0.974264 1.59091 4.70141e-08 2.54303 4.70141e-08 3.71753V5.81334C-2.86391e-06 6.54216 -5.16325e-06 7.1135 0.0444035 7.56995C0.0896685 8.0352 0.183521 8.41616 0.394102 8.75199C0.614623 9.10366 0.917181 9.39935 1.27704 9.61486C1.62068 9.82065 2.01049 9.91237 2.48656 9.95661C2.95362 10 3.53824 10 4.28398 10H5.71599C6.46173 10 7.04638 10 7.51344 9.95661C7.98951 9.91237 8.37932 9.82065 8.72296 9.61486C9.08282 9.39935 9.38538 9.10366 9.6059 8.75199C9.81648 8.41616 9.91033 8.0352 9.9556 7.56995C10 7.11351 10 6.54217 10 5.81338V3.71753C10 2.54303 9.02574 1.59091 7.82392 1.59091C7.61292 1.59091 7.44186 1.42374 7.44186 1.21753V1.13636C7.44186 0.508767 6.92126 0 6.27907 0H3.72093ZM3.25581 1.13636C3.25581 0.885325 3.46405 0.681818 3.72093 0.681818H6.27907C6.53595 0.681818 6.74419 0.885325 6.74419 1.13636V1.21753C6.74419 1.8003 7.2276 2.27273 7.82392 2.27273C8.64042 2.27273 9.30233 2.91959 9.30233 3.71753V5.79545C9.30233 6.54602 9.30196 7.085 9.26105 7.50541C9.22064 7.92076 9.14315 8.18504 9.01103 8.39574C8.84804 8.65567 8.62441 8.87422 8.35843 9.03351C8.14283 9.16262 7.8724 9.23836 7.4474 9.27785C7.01721 9.31782 6.46569 9.31818 5.69767 9.31818H4.30233C3.53431 9.31818 2.98279 9.31782 2.5526 9.27785C2.1276 9.23836 1.85717 9.16262 1.64157 9.03351C1.37559 8.87422 1.15196 8.65567 0.988967 8.39574C0.856852 8.18504 0.779355 7.92076 0.738946 7.50541C0.698043 7.085 0.697675 6.54602 0.697675 5.79545V3.71753C0.697675 2.91959 1.35958 2.27273 2.17608 2.27273C2.7724 2.27273 3.25581 1.8003 3.25581 1.21753V1.13636Z" fill="white"/>
<path d="M7.32558 3.75C7.32558 4.00104 7.53382 4.20455 7.7907 4.20455C8.04757 4.20455 8.25581 4.00104 8.25581 3.75C8.25581 3.49896 8.04757 3.29545 7.7907 3.29545C7.53382 3.29545 7.32558 3.49896 7.32558 3.75Z" fill="white"/>
</svg>
