<svg width="34" height="34" viewBox="0 0 34 34" fill="none" xmlns="http://www.w3.org/2000/svg">
<path d="M10.3542 23.9247H9.35421C9.35421 24.1899 9.45957 24.4443 9.64711 24.6318C9.83464 24.8194 10.089 24.9247 10.3542 24.9247L10.3542 23.9247ZM10.3542 20.4785L9.6471 19.7714C9.45957 19.9589 9.35421 20.2132 9.35421 20.4785H10.3542ZM19.7182 11.1144L19.0166 10.4018L19.0111 10.4073L19.7182 11.1144ZM23.1645 14.5607L22.466 13.8449L22.4574 13.8536L23.1645 14.5607ZM13.8005 23.9247L13.8005 24.9247C14.0657 24.9247 14.32 24.8193 14.5076 24.6318L13.8005 23.9247ZM23.1644 12.6112L23.8716 11.9041L23.1644 12.6112ZM23.7402 13.3198L22.7892 13.6288H22.7892L23.7402 13.3198ZM23.1652 14.56L23.8637 15.2757L23.8723 15.2671L23.1652 14.56ZM23.7402 13.8523L22.7892 13.5432V13.5432L23.7402 13.8523ZM19.7197 11.113L20.4213 11.8256L20.4268 11.8201L19.7197 11.113ZM20.4268 10.5385L20.1177 9.58746L20.4268 10.5385ZM21.6655 11.1122L20.9584 11.8194V11.8194L21.6655 11.1122ZM20.9593 10.5385L21.2683 9.58746L20.9593 10.5385ZM32.1039 16.7223H31.1039C31.1039 24.7592 24.5888 31.2743 16.5519 31.2743V32.2743V33.2743C25.6933 33.2743 33.1039 25.8637 33.1039 16.7223H32.1039ZM16.5519 32.2743V31.2743C8.51512 31.2743 2 24.7592 2 16.7223H1H0C0 25.8637 7.41056 33.2743 16.5519 33.2743V32.2743ZM1 16.7223H2C2 8.68553 8.51512 2.17041 16.5519 2.17041V1.17041V0.17041C7.41056 0.17041 0 7.58097 0 16.7223H1ZM16.5519 1.17041V2.17041C24.5888 2.17041 31.1039 8.68553 31.1039 16.7223H32.1039H33.1039C33.1039 7.58097 25.6933 0.17041 16.5519 0.17041V1.17041ZM10.3542 23.9247H11.3542V20.4785H10.3542H9.35421V23.9247H10.3542ZM10.3542 20.4785L11.0613 21.1856L17.9538 14.2931L17.2467 13.586L16.5396 12.8789L9.6471 19.7714L10.3542 20.4785ZM17.2467 13.586L17.9538 14.2931L20.4253 11.8215L19.7182 11.1144L19.0111 10.4073L16.5396 12.8789L17.2467 13.586ZM23.1645 14.5607L22.4574 13.8536L19.9858 16.3251L20.693 17.0322L21.4001 17.7393L23.8716 15.2678L23.1645 14.5607ZM20.693 17.0322L19.9858 16.3251L13.0934 23.2176L13.8005 23.9247L14.5076 24.6318L21.4001 17.7393L20.693 17.0322ZM13.8005 23.9247L13.8005 22.9247L10.3542 22.9247L10.3542 23.9247L10.3542 24.9247L13.8005 24.9247L13.8005 23.9247ZM23.1644 12.6112L22.4573 13.3183C22.6396 13.5006 22.7332 13.5953 22.794 13.6669C22.8472 13.7295 22.8143 13.706 22.7892 13.6288L23.7402 13.3198L24.6913 13.0108C24.6023 12.7368 24.4521 12.5296 24.3186 12.3725C24.1928 12.2242 24.0305 12.063 23.8716 11.9041L23.1644 12.6112ZM23.1645 14.5607L23.8629 15.2764L23.8636 15.2757L23.1652 14.56L22.4668 13.8443L22.4661 13.845L23.1645 14.5607ZM23.1652 14.56L23.8723 15.2671C24.031 15.1084 24.1931 14.9474 24.3189 14.7992C24.4522 14.6421 24.6023 14.4351 24.6913 14.1613L23.7402 13.8523L22.7892 13.5432C22.8142 13.466 22.8472 13.4425 22.7942 13.5049C22.7336 13.5763 22.6401 13.6708 22.4581 13.8528L23.1652 14.56ZM23.7402 13.3198L22.7892 13.6288C22.7801 13.6009 22.7801 13.571 22.7892 13.5432L23.7402 13.8523L24.6913 14.1613C24.8127 13.7875 24.8128 13.3847 24.6913 13.0108L23.7402 13.3198ZM19.7182 11.1144L20.4198 11.827L20.4213 11.8255L19.7197 11.113L19.0181 10.4004L19.0166 10.4019L19.7182 11.1144ZM19.7197 11.113L20.4268 11.8201C20.6086 11.6383 20.703 11.545 20.7743 11.4845C20.8367 11.4315 20.8131 11.4644 20.7358 11.4896L20.4268 10.5385L20.1177 9.58746C19.844 9.67641 19.637 9.82649 19.48 9.95973C19.3319 10.0854 19.171 10.2474 19.0126 10.4059L19.7197 11.113ZM21.6655 11.1122L22.3726 10.4051C22.2144 10.2469 22.0537 10.0851 21.9057 9.95951C21.7488 9.82635 21.5419 9.67637 21.2683 9.58746L20.9593 10.5385L20.6502 11.4896C20.5729 11.4644 20.5492 11.4315 20.6115 11.4843C20.6826 11.5447 20.7769 11.6378 20.9584 11.8194L21.6655 11.1122ZM20.4268 10.5385L20.7358 11.4896C20.708 11.4986 20.678 11.4986 20.6502 11.4896L20.9593 10.5385L21.2683 9.58746C20.8944 9.46598 20.4916 9.46598 20.1177 9.58746L20.4268 10.5385ZM17.2467 13.586L16.5396 14.2931L19.9858 17.7393L20.693 17.0322L21.4001 16.3251L17.9538 12.8789L17.2467 13.586ZM21.6655 11.1122L20.9584 11.8194L22.4573 13.3183L23.1644 12.6112L23.8716 11.9041L22.3726 10.4051L21.6655 11.1122Z" fill="white"/>
</svg>
