<svg width="18" height="16" viewBox="0 0 18 16" fill="none" xmlns="http://www.w3.org/2000/svg">
<path fill-rule="evenodd" clip-rule="evenodd" d="M13.3758 0.298096C14.4933 0.298096 15.5683 0.739762 16.3591 1.53226C17.1508 2.3231 17.5933 3.38976 17.5933 4.50643V11.0898C17.5933 13.4148 15.7016 15.2981 13.3758 15.2981H5.14327C2.81744 15.2981 0.926605 13.4148 0.926605 11.0898V4.50643C0.926605 2.18143 2.80911 0.298096 5.14327 0.298096H13.3758ZM14.7016 5.7481L14.7683 5.68143C14.9674 5.43976 14.9674 5.08976 14.7591 4.8481C14.6433 4.72393 14.4841 4.6481 14.3183 4.63143C14.1433 4.62226 13.9766 4.68143 13.8508 4.7981L10.0933 7.7981C9.60994 8.19893 8.91744 8.19893 8.42661 7.7981L4.6766 4.7981C4.41744 4.60643 4.05911 4.63143 3.84327 4.85643C3.61827 5.08143 3.59327 5.43976 3.78411 5.68976L3.89327 5.7981L7.68494 8.75643C8.15161 9.1231 8.71744 9.3231 9.30994 9.3231C9.90077 9.3231 10.4766 9.1231 10.9424 8.75643L14.7016 5.7481Z" fill="#9E9E9E"/>
</svg>
