<svg width="19" height="19" viewBox="0 0 19 19" fill="none" xmlns="http://www.w3.org/2000/svg">
<path d="M17.0425 9.65198C17.0425 9.00449 16.9889 8.53199 16.8728 8.04199H9.32819V10.9645H13.7567C13.6675 11.6907 13.1853 12.7845 12.1139 13.5194L12.0989 13.6173L14.4843 15.4283L14.6496 15.4445C16.1674 14.0707 17.0425 12.0495 17.0425 9.65198Z" fill="#4285F4"/>
<path d="M9.32767 17.352C11.4973 17.352 13.3187 16.6519 14.6491 15.4445L12.1134 13.5194C11.4348 13.9832 10.5241 14.3069 9.32767 14.3069C7.20269 14.3069 5.39914 12.9332 4.75623 11.0344L4.66199 11.0423L2.18155 12.9235L2.14911 13.0119C3.47052 15.5844 6.1848 17.352 9.32767 17.352Z" fill="#34A853"/>
<path d="M4.7567 11.0347C4.58706 10.5447 4.48888 10.0196 4.48888 9.47715C4.48888 8.93461 4.58706 8.40963 4.74777 7.91964L4.74328 7.81528L2.23174 5.90381L2.14957 5.94211C1.60495 7.00963 1.29245 8.2084 1.29245 9.47715C1.29245 10.7459 1.60495 11.9446 2.14957 13.0121L4.7567 11.0347Z" fill="#FBBC05"/>
<path d="M9.32771 4.64703C10.8366 4.64703 11.8545 5.28578 12.4348 5.81956L14.7027 3.64955C13.3099 2.3808 11.4973 1.60205 9.32771 1.60205C6.18482 1.60205 3.47053 3.36954 2.14911 5.94202L4.74732 7.91954C5.39916 6.0208 7.20272 4.64703 9.32771 4.64703Z" fill="#EB4335"/>
</svg>
