<svg width="10" height="12" viewBox="0 0 10 12" fill="none" xmlns="http://www.w3.org/2000/svg">
<path fill-rule="evenodd" clip-rule="evenodd" d="M5 3.625C3.96447 3.625 3.125 4.46447 3.125 5.5C3.125 6.53553 3.96447 7.375 5 7.375C6.03553 7.375 6.875 6.53553 6.875 5.5C6.875 4.46447 6.03553 3.625 5 3.625ZM3.875 5.5C3.875 4.87868 4.37868 4.375 5 4.375C5.62132 4.375 6.125 4.87868 6.125 5.5C6.125 6.12132 5.62132 6.625 5 6.625C4.37868 6.625 3.875 6.12132 3.875 5.5Z" fill="white"/>
<path fill-rule="evenodd" clip-rule="evenodd" d="M5 0.625C2.55833 0.625 0.625 2.74639 0.625 5.30435C0.625 6.12471 1.03255 7.09072 1.54532 7.99726C2.06639 8.91848 2.73144 9.83811 3.31452 10.5816L3.33397 10.6065C3.61857 10.9694 3.86102 11.2786 4.09612 11.4922C4.35262 11.7252 4.63547 11.8777 5 11.8777C5.36453 11.8777 5.64738 11.7252 5.90388 11.4922C6.13898 11.2786 6.38144 10.9694 6.66604 10.6064L6.68548 10.5816C7.26856 9.83811 7.93361 8.91848 8.45468 7.99726C8.96745 7.09072 9.375 6.12471 9.375 5.30435C9.375 2.74639 7.44167 0.625 5 0.625ZM1.375 5.30435C1.375 3.10786 3.02339 1.375 5 1.375C6.97661 1.375 8.625 3.10786 8.625 5.30435C8.625 5.9176 8.30519 6.73818 7.80187 7.62801C7.30686 8.50317 6.66711 9.38968 6.09531 10.1188C5.78583 10.5135 5.58206 10.7713 5.39959 10.937C5.23318 11.0882 5.12209 11.1277 5 11.1277C4.87791 11.1277 4.76682 11.0882 4.60041 10.937C4.41794 10.7713 4.21417 10.5135 3.90469 10.1188C3.33289 9.38968 2.69314 8.50317 2.19813 7.62801C1.69481 6.73818 1.375 5.9176 1.375 5.30435Z" fill="white"/>
</svg>
