<svg width="15" height="18" viewBox="0 0 15 18" fill="none" xmlns="http://www.w3.org/2000/svg">
<path fill-rule="evenodd" clip-rule="evenodd" d="M12.5289 5.20004V6.47782C13.9642 6.92583 15.0099 8.22515 15.0099 9.77704V13.8911C15.0099 15.8123 13.4171 17.37 11.4535 17.37H4.4006C2.43607 17.37 0.843269 15.8123 0.843269 13.8911V9.77704C0.843269 8.22515 1.88989 6.92583 3.32434 6.47782V5.20004C3.33281 2.71569 5.39049 0.703369 7.9139 0.703369C10.4712 0.703369 12.5289 2.71569 12.5289 5.20004ZM7.93084 2.15257C9.6498 2.15257 11.047 3.51896 11.047 5.20004V6.29812H4.80621V5.18348C4.81468 3.51068 6.21187 2.15257 7.93084 2.15257ZM8.66754 12.7491C8.66754 13.1549 8.33729 13.4779 7.92237 13.4779C7.51591 13.4779 7.18567 13.1549 7.18567 12.7491V10.9107C7.18567 10.5132 7.51591 10.1903 7.92237 10.1903C8.33729 10.1903 8.66754 10.5132 8.66754 10.9107V12.7491Z" fill="#9E9E9E"/>
</svg>
