<svg width="24" height="24" viewBox="0 0 24 24" fill="none" xmlns="http://www.w3.org/2000/svg">
<path d="M3.11111 6.14286L9.89737 11.414L9.89964 11.4159C10.6532 11.9843 11.0302 12.2687 11.4431 12.3785C11.808 12.4756 12.1917 12.4756 12.5566 12.3785C12.9699 12.2686 13.348 11.9834 14.1029 11.414C14.1029 11.414 18.4556 7.97822 20.8889 6.14286M2 17.3431V8.65737C2 7.37725 2 6.73671 2.24221 6.24777C2.45526 5.81768 2.79497 5.46827 3.21311 5.24913C3.68847 5 4.31121 5 5.55577 5H18.4447C19.6892 5 20.3106 5 20.786 5.24913C21.2041 5.46827 21.545 5.81768 21.758 6.24777C22 6.73623 22 7.37599 22 8.65361V17.3469C22 18.6246 22 19.2634 21.758 19.7519C21.545 20.182 21.2041 20.532 20.786 20.7511C20.3111 21 19.69 21 18.4479 21H5.55212C4.30999 21 3.688 21 3.21311 20.7511C2.79497 20.532 2.45526 20.182 2.24221 19.7519C2 19.2629 2 18.6232 2 17.3431Z" stroke="white" stroke-width="2" stroke-linecap="round" stroke-linejoin="round"/>
</svg>
