<svg width="28" height="28" viewBox="0 0 28 28" fill="none" xmlns="http://www.w3.org/2000/svg">
<path fill-rule="evenodd" clip-rule="evenodd" d="M14.8936 0.893617C14.8936 0.400086 14.4935 0 14 0C13.5065 0 13.1064 0.400086 13.1064 0.893617V4.76641C11.4785 4.77044 10.4091 4.80585 9.49993 5.10127C7.4142 5.77896 5.77896 7.4142 5.10127 9.49993C4.80585 10.4091 4.77044 11.4785 4.76641 13.1064H0.893617C0.400086 13.1064 0 13.5065 0 14C0 14.4935 0.400086 14.8936 0.893617 14.8936H4.76641C4.77044 16.5215 4.80585 17.5909 5.10127 18.5001C5.77896 20.5858 7.4142 22.221 9.49993 22.8987C10.4091 23.1941 11.4785 23.2296 13.1064 23.2336V27.1064C13.1064 27.5999 13.5065 28 14 28C14.4935 28 14.8936 27.5999 14.8936 27.1064V23.2336C16.5215 23.2296 17.5909 23.1941 18.5001 22.8987C20.5858 22.221 22.221 20.5858 22.8987 18.5001C23.1941 17.5909 23.2296 16.5215 23.2336 14.8936H27.1064C27.5999 14.8936 28 14.4935 28 14C28 13.5065 27.5999 13.1064 27.1064 13.1064H23.2336C23.2296 11.4785 23.1941 10.4091 22.8987 9.49993C22.221 7.4142 20.5858 5.77896 18.5001 5.10127C17.5909 4.80585 16.5215 4.77044 14.8936 4.76641V0.893617ZM10.0522 6.80103C10.6778 6.59776 11.4529 6.56084 13.1064 6.55447V6.85106C13.1064 7.34459 13.5065 7.74468 14 7.74468C14.4935 7.74468 14.8936 7.34459 14.8936 6.85106V6.55447C16.5471 6.56084 17.3222 6.59776 17.9478 6.80103C19.4894 7.30194 20.6981 8.51059 21.199 10.0522C21.4022 10.6778 21.4392 11.4529 21.4455 13.1064H21.1489C20.6554 13.1064 20.2553 13.5065 20.2553 14C20.2553 14.4935 20.6554 14.8936 21.1489 14.8936H21.4455C21.4392 16.5471 21.4022 17.3222 21.199 17.9478C20.6981 19.4894 19.4894 20.6981 17.9478 21.199C17.3222 21.4022 16.5471 21.4392 14.8936 21.4455V21.1489C14.8936 20.6554 14.4935 20.2553 14 20.2553C13.5065 20.2553 13.1064 20.6554 13.1064 21.1489V21.4455C11.4529 21.4392 10.6778 21.4022 10.0522 21.199C8.51059 20.6981 7.30194 19.4894 6.80103 17.9478C6.59776 17.3222 6.56084 16.5471 6.55447 14.8936H6.85106C7.34459 14.8936 7.74468 14.4935 7.74468 14C7.74468 13.5065 7.34459 13.1064 6.85106 13.1064H6.55447C6.56084 11.4529 6.59776 10.6778 6.80103 10.0522C7.30194 8.51059 8.51059 7.30194 10.0522 6.80103Z" fill="#2D264B"/>
<path fill-rule="evenodd" clip-rule="evenodd" d="M11.0213 14C11.0213 15.6451 12.3549 16.9787 14 16.9787C15.6451 16.9787 16.9787 15.6451 16.9787 14C16.9787 12.3549 15.6451 11.0213 14 11.0213C12.3549 11.0213 11.0213 12.3549 11.0213 14ZM12.8085 14C12.8085 14.658 13.342 15.1915 14 15.1915C14.658 15.1915 15.1915 14.658 15.1915 14C15.1915 13.342 14.658 12.8085 14 12.8085C13.342 12.8085 12.8085 13.342 12.8085 14Z" fill="#2D264B"/>
</svg>
