<svg width="20" height="20" viewBox="0 0 20 20" fill="none" xmlns="http://www.w3.org/2000/svg">
<path d="M15.7071 12.7071L18.3552 15.3552C18.7113 15.7113 18.7113 16.2887 18.3552 16.6448C16.43 18.57 13.3821 18.7866 11.204 17.153L9.62857 15.9714C7.88504 14.6638 6.33622 13.115 5.02857 11.3714L3.84701 9.79601C2.21341 7.61788 2.43001 4.56999 4.35523 2.64477C4.71133 2.28867 5.28867 2.28867 5.64477 2.64477L8.29289 5.29289C8.68342 5.68342 8.68342 6.31658 8.29289 6.70711L7.27175 7.72825C7.10946 7.89054 7.06923 8.13846 7.17187 8.34373C8.35853 10.7171 10.2829 12.6415 12.6563 13.8281C12.8615 13.9308 13.1095 13.8905 13.2717 13.7283L14.2929 12.7071C14.6834 12.3166 15.3166 12.3166 15.7071 12.7071Z" stroke="#787878"/>
</svg>
