<svg width="22" height="22" viewBox="0 0 22 22" fill="none" xmlns="http://www.w3.org/2000/svg">
<path fill-rule="evenodd" clip-rule="evenodd" d="M8.36658 14.1683C4.84291 14.1683 1.8335 14.7009 1.8335 16.8349C1.8335 18.9689 4.82458 19.5207 8.36658 19.5207C11.8912 19.5207 14.8997 18.9872 14.8997 16.8542C14.8997 14.7211 11.9095 14.1683 8.36658 14.1683Z" stroke="#666666" stroke-width="1.5" stroke-linecap="round" stroke-linejoin="round"/>
<path fill-rule="evenodd" clip-rule="evenodd" d="M8.36662 11.1247C10.6794 11.1247 12.554 9.25008 12.554 6.93733C12.554 4.62458 10.6794 2.75 8.36662 2.75C6.05479 2.75 4.1802 4.62458 4.1802 6.93733C4.17195 9.24183 6.03279 11.1164 8.3382 11.1247H8.36662Z" stroke="#666666" stroke-width="1.5" stroke-linecap="round" stroke-linejoin="round"/>
<path d="M17.6465 8.47925V13.9793" stroke="#666666" stroke-width="1.5" stroke-linecap="round" stroke-linejoin="round"/>
<path d="M20.3965 11.2292H14.8965" stroke="#666666" stroke-width="1.5" stroke-linecap="round" stroke-linejoin="round"/>
</svg>
