<svg width="23" height="22" viewBox="0 0 23 22" fill="none" xmlns="http://www.w3.org/2000/svg">
<path d="M8.33512 4.43912C8.74423 4.37922 9.02336 4.02408 8.95856 3.6459C8.89376 3.26771 8.50958 3.00969 8.10047 3.06959C5.64008 3.42982 3.71044 5.21358 3.32076 7.48795C3.25596 7.86614 3.53508 8.22127 3.9442 8.28117C4.35331 8.34107 4.73749 8.08305 4.80229 7.70486C5.09032 6.0238 6.51658 4.70537 8.33512 4.43912Z" fill="#2D264B"/>
<path fill-rule="evenodd" clip-rule="evenodd" d="M10 0.230957C4.61522 0.230957 0.25 4.26617 0.25 9.24385C0.25 14.2215 4.61522 18.2567 10 18.2567C15.3848 18.2567 19.75 14.2215 19.75 9.24385C19.75 4.26617 15.3848 0.230957 10 0.230957ZM1.75 9.24385C1.75 5.03196 5.44365 1.61756 10 1.61756C14.5563 1.61756 18.25 5.03196 18.25 9.24385C18.25 13.4557 14.5563 16.8701 10 16.8701C5.44365 16.8701 1.75 13.4557 1.75 9.24385Z" fill="#2D264B"/>
<path d="M18.5304 16.1489C18.2375 15.8781 17.7626 15.8781 17.4697 16.1489C17.1768 16.4196 17.1768 16.8586 17.4697 17.1294L21.4696 20.8269C21.7625 21.0977 22.2374 21.0977 22.5303 20.8269C22.8232 20.5562 22.8232 20.1172 22.5303 19.8464L18.5304 16.1489Z" fill="#2D264B"/>
</svg>
