<svg width="11" height="12" viewBox="0 0 11 12" fill="none" xmlns="http://www.w3.org/2000/svg">
<path d="M6.4502 1.2943L7.41809 3.24608C7.55008 3.51778 7.90204 3.77839 8.19901 3.82829L9.95331 4.12217C11.0752 4.31069 11.3392 5.13133 10.5307 5.94087L9.1669 7.31599C8.93592 7.54888 8.80944 7.99801 8.88093 8.31961L9.27139 10.0219C9.57935 11.3693 8.86993 11.8905 7.68756 11.1863L6.04324 10.2049C5.74628 10.0274 5.25683 10.0274 4.95437 10.2049L3.31005 11.1863C2.13318 11.8905 1.41826 11.3637 1.72622 10.0219L2.11668 8.31961C2.18817 7.99801 2.06169 7.54888 1.83071 7.31599L0.466861 5.94087C-0.33605 5.13133 -0.0775784 4.31069 1.0443 4.12217L2.7986 3.82829C3.09007 3.77839 3.44203 3.51778 3.57402 3.24608L4.54191 1.2943C5.06985 0.235234 5.92776 0.235234 6.4502 1.2943Z" fill="#FFAB2C"/>
</svg>
