<svg width="19" height="20" viewBox="0 0 19 20" fill="none" xmlns="http://www.w3.org/2000/svg">
<path d="M1.69556 7.64171V17.0749C1.69556 17.5854 1.8931 18.0751 2.24474 18.4361C2.59638 18.7972 3.0733 19 3.57059 19H15.8205C16.3178 19 16.7947 18.7972 17.1464 18.4361C17.498 18.0751 17.6956 17.5854 17.6956 17.0749V7.64171C17.6956 7.34284 17.6278 7.04808 17.4976 6.78076C17.3674 6.51345 17.1784 6.28092 16.9455 6.1016L10.8206 1.38503C10.496 1.1351 10.1013 1 9.69556 1C9.28986 1 8.8951 1.1351 8.57054 1.38503L2.44557 6.1016C2.2127 6.28092 2.02369 6.51345 1.89351 6.78076C1.76333 7.04808 1.69556 7.34284 1.69556 7.64171V7.64171Z" stroke="#888888" stroke-width="2" stroke-linecap="round" stroke-linejoin="round"/>
<path d="M7.16479 19.0002V16.4651C7.16479 15.7759 7.43143 15.1149 7.90606 14.6276C8.38069 14.1402 9.02443 13.8663 9.69571 13.8662V13.8662C10.367 13.8663 11.0107 14.1402 11.4854 14.6276C11.96 15.1149 12.2266 15.7759 12.2266 16.4651V19.0002" stroke="#888888" stroke-width="2" stroke-linecap="round" stroke-linejoin="round"/>
</svg>
