<svg width="19" height="20" viewBox="0 0 19 20" fill="none" xmlns="http://www.w3.org/2000/svg">
<path d="M1.6958 7.64171V17.0749C1.6958 17.5854 1.89335 18.0751 2.24498 18.4361C2.59662 18.7972 3.07354 19 3.57083 19H15.8208C16.3181 19 16.795 18.7972 17.1466 18.4361C17.4983 18.0751 17.6958 17.5854 17.6958 17.0749V7.64171C17.6958 7.34284 17.628 7.04808 17.4978 6.78076C17.3677 6.51345 17.1787 6.28092 16.9458 6.1016L10.8208 1.38503C10.4963 1.1351 10.1015 1 9.6958 1C9.2901 1 8.89534 1.1351 8.57078 1.38503L2.44581 6.1016C2.21294 6.28092 2.02393 6.51345 1.89375 6.78076C1.76357 7.04808 1.6958 7.34284 1.6958 7.64171V7.64171Z" stroke="#02AFFF" stroke-width="2" stroke-linecap="round" stroke-linejoin="round"/>
<path d="M7.16455 19.0002V16.4651C7.16455 15.7759 7.43119 15.1149 7.90582 14.6276C8.38044 14.1402 9.02419 13.8663 9.69547 13.8662V13.8662C10.3667 13.8663 11.0105 14.1402 11.4851 14.6276C11.9597 15.1149 12.2264 15.7759 12.2264 16.4651V19.0002" stroke="#02AFFF" stroke-width="2" stroke-linecap="round" stroke-linejoin="round"/>
</svg>
