<svg width="22" height="22" viewBox="0 0 22 22" fill="none" xmlns="http://www.w3.org/2000/svg">
<path d="M8.93563 16.6994L12.192 19.9408C12.3918 20.1456 12.6416 20.2947 12.9167 20.3733C13.1917 20.4519 13.4826 20.4573 13.7604 20.389C14.04 20.324 14.2981 20.1882 14.51 19.9946C14.7219 19.801 14.8804 19.5562 14.9703 19.2836L20.3179 3.25577C20.4295 2.95546 20.4526 2.62942 20.3843 2.3164C20.316 2.00338 20.1593 1.71655 19.9327 1.49001C19.7062 1.26346 19.4193 1.10673 19.1063 1.03845C18.7933 0.970157 18.4673 0.993184 18.1669 1.10479L2.13911 6.45238C1.85717 6.54868 1.60606 6.71853 1.41173 6.94437C1.2174 7.17021 1.08691 7.44384 1.03374 7.73699C0.978861 8.00361 0.991078 8.27969 1.0693 8.54042C1.14751 8.80114 1.28928 9.03835 1.48186 9.23073L5.57471 13.3236L5.44028 18.5069L8.93563 16.6994Z" stroke="#888888" stroke-width="1.5" stroke-linecap="round" stroke-linejoin="round"/>
<path d="M19.8399 1.43457L5.57471 13.3247" stroke="#888888" stroke-width="1.5" stroke-linecap="round" stroke-linejoin="round"/>
</svg>
