<svg width="22" height="21" viewBox="0 0 22 21" fill="none" xmlns="http://www.w3.org/2000/svg">
<path d="M7.23599 3.18774L6.65099 3.32274C6.70397 3.55331 6.71059 3.7921 6.67047 4.02525C6.63035 4.2584 6.54428 4.48124 6.41727 4.68083C6.29026 4.88042 6.12484 5.05277 5.93063 5.18786C5.73642 5.32295 5.51729 5.41809 5.28599 5.46774C4.81696 5.56641 4.32793 5.47712 3.92403 5.21907C3.52013 4.96102 3.23358 4.55481 3.12599 4.08774L1.95599 4.32774C1.79554 4.36275 1.64385 4.42993 1.51009 4.52521C1.37633 4.62049 1.26327 4.74189 1.17775 4.88209C1.09223 5.02229 1.03602 5.17838 1.01251 5.34091C0.989004 5.50345 0.998692 5.66906 1.04099 5.82774C1.04099 5.82774 1.58099 8.33274 2.21099 11.1527" stroke="#888888" stroke-width="1.5" stroke-linecap="round" stroke-linejoin="round"/>
<path d="M18.4861 3.17272C18.3964 3.4253 18.2565 3.65704 18.0746 3.85392C17.8928 4.0508 17.6729 4.20871 17.4282 4.31809C17.1835 4.42748 16.9192 4.48605 16.6512 4.49026C16.3833 4.49448 16.1172 4.44424 15.8692 4.34261C15.6213 4.24098 15.3965 4.09006 15.2085 3.89899C15.0206 3.70793 14.8734 3.4807 14.7759 3.23107C14.6783 2.98144 14.6325 2.71462 14.6411 2.44675C14.6498 2.17888 14.7127 1.91556 14.8261 1.67272L13.6111 1.10272C13.2866 0.967519 12.922 0.965715 12.5962 1.0977C12.2705 1.22969 12.0099 1.48482 11.8711 1.80772L6.83108 13.6727L6.17108 15.1727C6.03588 15.4972 6.03407 15.8618 6.16606 16.1876C6.29805 16.5133 6.55318 16.7739 6.87608 16.9127L12.9661 19.5077C13.2905 19.6429 13.6552 19.6447 13.9809 19.5127C14.3067 19.3808 14.5673 19.1256 14.7061 18.8027L20.4061 5.39272C20.5318 5.08089 20.5352 4.73312 20.4156 4.41889C20.296 4.10466 20.0623 3.84712 19.7611 3.69772L18.4861 3.17272Z" stroke="#888888" stroke-width="1.5" stroke-linecap="round" stroke-linejoin="round"/>
</svg>
