<svg width="51" height="48" viewBox="0 0 51 48" fill="none" xmlns="http://www.w3.org/2000/svg">
<g clip-path="url(#clip0_1_6206)">
<path d="M37.5922 18.7906C40.7644 18.7906 43.3359 16.2496 43.3359 13.1151C43.3359 9.98068 40.7644 7.4397 37.5922 7.4397C34.42 7.4397 31.8484 9.98068 31.8484 13.1151C31.8484 16.2496 34.42 18.7906 37.5922 18.7906Z" fill="#5ABE80"/>
<path d="M37.7892 18.8323C37.6898 18.8373 37.5905 18.8389 37.4911 18.8389C34.3194 18.8389 31.7473 16.2975 31.7473 13.1635C31.7473 10.0295 34.3194 7.48804 37.4911 7.48804C37.5905 7.48804 37.6915 7.48804 37.7892 7.49469C34.6209 7.64116 32.1718 10.2975 32.32 13.4298C32.4581 16.3557 34.8281 18.6975 37.7892 18.8339V18.8323Z" fill="#00A44E"/>
<path d="M37.3159 7.4964C37.4153 7.49141 37.5147 7.48975 37.6141 7.48975C40.7858 7.48975 43.3578 10.0312 43.3578 13.1652C43.3578 16.2992 40.7858 18.8406 37.6141 18.8406C37.5147 18.8406 37.4136 18.8406 37.3159 18.834C40.4843 18.6875 42.9334 16.0312 42.7851 12.8989C42.647 9.97296 40.2771 7.63122 37.3159 7.49474V7.4964Z" fill="#00A44E"/>
<path d="M37.5923 17.807C40.2147 17.807 42.3406 15.7064 42.3406 13.1152C42.3406 10.5239 40.2147 8.42334 37.5923 8.42334C34.9699 8.42334 32.844 10.5239 32.844 13.1152C32.844 15.7064 34.9699 17.807 37.5923 17.807Z" fill="#00A44E"/>
<path d="M36.6961 12.9438H38.0807C38.0487 12.9904 38.0183 13.0237 37.9863 13.047C37.892 13.1319 37.791 13.2001 37.6832 13.2517C37.5754 13.3033 37.4642 13.3432 37.3496 13.3732C37.2351 13.4015 37.1206 13.4215 37.0027 13.4331C36.8848 13.4448 36.7652 13.4531 36.6439 13.4564C36.5967 13.4681 36.5512 13.4897 36.5058 13.523C36.4603 13.5563 36.4266 13.5962 36.403 13.6428C36.3794 13.6894 36.3693 13.741 36.3727 13.7976C36.3761 13.8542 36.403 13.9124 36.4485 13.9757C36.6843 14.197 36.9184 14.4201 37.1526 14.6431C37.3867 14.8661 37.6208 15.0908 37.8566 15.3155C37.9392 15.3588 38.015 15.3721 38.0857 15.3588C38.1565 15.3455 38.2121 15.3155 38.2508 15.2689C38.2895 15.2223 38.3114 15.1624 38.3131 15.0908C38.3148 15.0192 38.2879 14.946 38.234 14.8728C37.924 14.5732 37.609 14.2753 37.2907 13.9757C37.5113 13.9441 37.7051 13.8908 37.8735 13.8126C38.0419 13.7344 38.2087 13.6228 38.3738 13.4747C38.4563 13.4015 38.5253 13.3199 38.5826 13.2301C38.6399 13.1402 38.6837 13.0453 38.7157 12.9455H39.0391C39.13 12.9255 39.1974 12.8905 39.2446 12.8373C39.2917 12.784 39.317 12.7274 39.3204 12.6658C39.3238 12.6043 39.3052 12.5443 39.2614 12.4878C39.2176 12.4312 39.1519 12.3896 39.061 12.3629H38.7612C38.746 12.2731 38.7207 12.1865 38.687 12.1016C38.6534 12.0167 38.6096 11.9352 38.554 11.857H38.7308C38.8218 11.837 38.8875 11.802 38.9313 11.7521C38.9751 11.7022 38.9936 11.6473 38.9902 11.589C38.9869 11.5307 38.9599 11.4758 38.9144 11.4226C38.8673 11.371 38.7982 11.331 38.7089 11.3027C38.3047 11.3061 37.9207 11.3077 37.5602 11.3061C37.198 11.3044 36.8393 11.3027 36.4822 11.3027C36.4266 11.326 36.3828 11.3593 36.3474 11.4043C36.3121 11.4492 36.2902 11.4975 36.2834 11.5491C36.275 11.6007 36.2868 11.6522 36.3154 11.7005C36.3457 11.7488 36.3996 11.7887 36.4771 11.8203L36.5883 11.8253C36.7062 11.8403 36.8207 11.847 36.9302 11.842C37.0397 11.8387 37.1475 11.8387 37.2536 11.842C37.3597 11.8453 37.4642 11.8586 37.5686 11.8803C37.673 11.9019 37.7775 11.9452 37.8836 12.0117C38.0133 12.0966 38.1043 12.2131 38.1548 12.3613H36.7163C36.6102 12.3646 36.5293 12.3946 36.4754 12.4511C36.4199 12.5077 36.3912 12.5693 36.3879 12.6375C36.3845 12.7058 36.4081 12.7707 36.4586 12.8323C36.5091 12.8939 36.5883 12.9305 36.6944 12.9421L36.6961 12.9438Z" fill="white"/>
<path d="M33.0798 12.3397C33.4689 10.156 35.3757 8.55491 37.6209 8.52995C37.813 8.52995 37.813 8.23369 37.6209 8.23536C35.2426 8.257 33.2163 9.94632 32.7918 12.2598C32.7581 12.4445 33.0461 12.5261 33.0798 12.338V12.3397Z" fill="white"/>
<path d="M33.0208 13.0787C33.0208 12.9972 33.0225 12.9173 33.0275 12.8374C33.0275 12.7558 32.9602 12.6909 32.8776 12.6909C32.7968 12.6926 32.7311 12.7575 32.7294 12.8374C32.726 12.9173 32.7227 12.9988 32.7227 13.0787C32.7227 13.1586 32.79 13.2268 32.8726 13.2268C32.9551 13.2268 33.0225 13.1603 33.0225 13.0787H33.0208Z" fill="white"/>
<path d="M37.6025 19.1902C35.5054 19.1902 33.5734 18.1517 32.4347 16.4141C31.0232 14.267 31.1765 11.3444 32.8104 9.30561C32.8609 9.24403 32.9283 9.2124 32.999 9.2124C33.0967 9.2124 33.191 9.27398 33.2382 9.37052C33.2854 9.46705 33.2736 9.57523 33.2062 9.66011C32.8424 10.1112 32.5543 10.6138 32.3471 11.1547C31.8166 12.5428 31.8654 14.0507 32.4836 15.4021C33.1018 16.7536 34.2151 17.7872 35.6199 18.3098C36.2415 18.5394 36.8933 18.656 37.5603 18.656C39.2565 18.656 40.8533 17.9153 41.9414 16.6238L41.9852 16.5722L42.0021 16.5755C42.0408 16.5489 42.0863 16.5339 42.1351 16.5339C42.2345 16.5339 42.3305 16.5988 42.376 16.6953C42.4232 16.7919 42.408 16.9001 42.339 16.9833C41.9381 17.4643 41.4664 17.8787 40.9359 18.2182C39.9387 18.8557 38.7849 19.1935 37.6025 19.1935V19.1902Z" fill="#2F586D"/>
<path d="M32.9989 9.32891C33.105 9.32891 33.2027 9.47538 33.1134 9.58689C32.7429 10.0479 32.4481 10.5622 32.2376 11.1114C31.1174 14.0407 32.6132 17.3112 35.5777 18.418C36.2245 18.6576 36.8949 18.7725 37.5602 18.7725C39.2531 18.7725 40.9122 18.0285 42.0323 16.6987H42.0374C42.066 16.6637 42.1014 16.6504 42.1334 16.6504C42.2395 16.6504 42.3405 16.7985 42.2479 16.9084C41.8554 17.3794 41.3905 17.7888 40.8718 18.12C39.8594 18.7675 38.7242 19.0754 37.6023 19.0754C35.6249 19.0754 33.6878 18.115 32.534 16.3525C31.1242 14.2088 31.3044 11.3744 32.9029 9.37884C32.9315 9.34389 32.9669 9.32891 32.9989 9.32891ZM32.9989 9.0959C32.8911 9.0959 32.7917 9.14417 32.7193 9.23072C31.899 10.256 31.4274 11.4876 31.3549 12.7958C31.2808 14.1156 31.6211 15.3888 32.3369 16.4773C33.4958 18.2482 35.4649 19.3067 37.604 19.3067C38.8101 19.3067 39.9841 18.9639 41.0014 18.3131C41.5421 17.9686 42.0222 17.5442 42.4315 17.0548C42.5292 16.9383 42.5494 16.7802 42.4837 16.6438C42.418 16.5056 42.2816 16.4157 42.135 16.4157C42.0795 16.4157 42.0272 16.4291 41.9784 16.4524L41.943 16.4474L41.8504 16.5489C40.7842 17.8138 39.221 18.5395 37.5586 18.5395C36.9067 18.5395 36.2666 18.4246 35.6586 18.1999C34.2841 17.6873 33.1943 16.6754 32.5879 15.3522C31.9832 14.0291 31.9361 12.5528 32.4548 11.193C32.657 10.6654 32.94 10.1727 33.2954 9.73002C33.3897 9.61185 33.4082 9.45374 33.3408 9.31726C33.2751 9.18078 33.1387 9.09424 32.9955 9.09424L32.9989 9.0959Z" fill="#2F586D"/>
<path d="M43.3058 14.8045C43.2182 14.8045 43.1357 14.7646 43.0835 14.6997C43.0329 14.6364 43.0178 14.5582 43.0363 14.4767C43.3833 13.1169 43.2014 11.6905 42.5226 10.4606C41.5372 8.67639 39.6473 7.56793 37.589 7.56793C36.6575 7.56793 35.7294 7.8026 34.9057 8.24532L34.8788 8.2603H34.8737C34.8417 8.27361 34.8097 8.27861 34.776 8.27861C34.6548 8.27861 34.5436 8.1904 34.5133 8.06723C34.4846 7.95239 34.5352 7.84255 34.643 7.78596C35.5424 7.29997 36.5632 7.04199 37.5907 7.04199C38.0993 7.04199 38.6063 7.10524 39.0999 7.2284C42.3878 8.05059 44.3855 11.3627 43.5534 14.6115C43.5248 14.7296 43.4271 14.8062 43.3058 14.8062V14.8045Z" fill="#2F586D"/>
<path d="M37.5907 7.15684C38.0859 7.15684 38.5828 7.21675 39.0712 7.33825C42.3002 8.14547 44.2558 11.3876 43.4389 14.5799C43.4203 14.6548 43.3648 14.6864 43.3058 14.6864C43.2165 14.6864 43.1239 14.6131 43.1508 14.5016C43.5046 13.1186 43.3176 11.6539 42.627 10.4023C41.586 8.51662 39.6204 7.4481 37.589 7.4481C36.6626 7.4481 35.721 7.67112 34.8502 8.14047C34.8249 8.15379 34.8013 8.15878 34.7777 8.15878C34.643 8.15878 34.5554 7.96072 34.6986 7.88583C35.593 7.40316 36.5884 7.15517 37.5907 7.15517M37.5907 6.92383C36.543 6.92383 35.5037 7.1868 34.584 7.68277C34.4324 7.76266 34.3566 7.92743 34.3987 8.09387C34.4425 8.26696 34.6009 8.39345 34.776 8.39345C34.8165 8.39345 34.8569 8.3868 34.8956 8.37515H34.9091L34.963 8.34685C35.7698 7.91246 36.6777 7.68277 37.589 7.68277C39.6052 7.68277 41.4563 8.76793 42.4198 10.5155C43.0851 11.7205 43.2637 13.1169 42.9234 14.4467C42.8948 14.5632 42.9201 14.6814 42.9908 14.7713C43.0649 14.8661 43.1828 14.9211 43.3058 14.9211C43.481 14.9211 43.6275 14.8062 43.6679 14.6365C44.5152 11.3277 42.4788 7.9524 39.1285 7.11523C38.6266 6.9904 38.1095 6.92549 37.5907 6.92549V6.92383Z" fill="#2F586D"/>
<path d="M39.0038 9.19397C39.3592 9.2955 39.6911 9.46859 39.9757 9.70326C40.0498 9.76318 40.1543 9.65999 40.0818 9.59841C39.7787 9.34709 39.4249 9.16068 39.0443 9.0525C39.0038 9.04251 38.9634 9.06748 38.955 9.10576C38.9449 9.14404 38.9685 9.18232 39.0055 9.19397H39.0038Z" fill="white"/>
<path d="M15.1779 18.7906C18.3501 18.7906 20.9216 16.2496 20.9216 13.1151C20.9216 9.98068 18.3501 7.4397 15.1779 7.4397C12.0057 7.4397 9.43408 9.98068 9.43408 13.1151C9.43408 16.2496 12.0057 18.7906 15.1779 18.7906Z" fill="#5ABE80"/>
<path d="M15.3749 18.8323C15.2755 18.8373 15.1762 18.8389 15.0768 18.8389C11.9051 18.8389 9.33301 16.2975 9.33301 13.1635C9.33301 10.0295 11.9051 7.48804 15.0768 7.48804C15.1762 7.48804 15.2772 7.48804 15.3749 7.49469C12.2066 7.64116 9.75747 10.2975 9.9057 13.4298C10.0438 16.3557 12.4138 18.6975 15.3749 18.8339V18.8323Z" fill="#00A44E"/>
<path d="M14.9033 7.4964C15.0027 7.49141 15.1021 7.48975 15.2015 7.48975C18.3732 7.48975 20.9452 10.0312 20.9452 13.1652C20.9452 16.2992 18.3732 18.8406 15.2015 18.8406C15.1021 18.8406 15.001 18.8406 14.9033 18.834C18.0717 18.6875 20.5208 16.0312 20.3725 12.8989C20.2344 9.97296 17.8645 7.63122 14.9033 7.49474V7.4964Z" fill="#00A44E"/>
<path d="M15.178 17.807C17.8004 17.807 19.9263 15.7064 19.9263 13.1152C19.9263 10.5239 17.8004 8.42334 15.178 8.42334C12.5556 8.42334 10.4297 10.5239 10.4297 13.1152C10.4297 15.7064 12.5556 17.807 15.178 17.807Z" fill="#00A44E"/>
<path d="M14.2835 12.9438H15.6681C15.6361 12.9904 15.6058 13.0237 15.5737 13.047C15.4794 13.1319 15.3784 13.2001 15.2706 13.2517C15.1628 13.3033 15.0516 13.3432 14.937 13.3732C14.8225 13.4015 14.708 13.4215 14.5901 13.4331C14.4722 13.4448 14.3526 13.4531 14.2313 13.4564C14.1841 13.4681 14.1386 13.4897 14.0932 13.523C14.0477 13.5563 14.014 13.5962 13.9904 13.6428C13.9668 13.6894 13.9567 13.741 13.9601 13.7976C13.9635 13.8542 13.9904 13.9124 14.0359 13.9757C14.2717 14.197 14.5058 14.4201 14.74 14.6431C14.9741 14.8661 15.2082 15.0908 15.444 15.3155C15.5266 15.3588 15.6024 15.3721 15.6731 15.3588C15.7439 15.3455 15.7995 15.3155 15.8382 15.2689C15.8769 15.2223 15.8988 15.1624 15.9005 15.0908C15.9022 15.0192 15.8753 14.946 15.8214 14.8728C15.5114 14.5732 15.1964 14.2753 14.8781 13.9757C15.0987 13.9441 15.2925 13.8908 15.4609 13.8126C15.6293 13.7344 15.7961 13.6228 15.9612 13.4747C16.0437 13.4015 16.1128 13.3199 16.17 13.2301C16.2273 13.1402 16.2711 13.0453 16.3031 12.9455H16.6265C16.7174 12.9255 16.7848 12.8905 16.832 12.8373C16.8792 12.784 16.9044 12.7274 16.9078 12.6658C16.9112 12.6043 16.8926 12.5443 16.8488 12.4878C16.805 12.4312 16.7393 12.3896 16.6484 12.3629H16.3486C16.3334 12.2731 16.3081 12.1865 16.2745 12.1016C16.2408 12.0167 16.197 11.9352 16.1414 11.857H16.3182C16.4092 11.837 16.4749 11.802 16.5187 11.7521C16.5625 11.7022 16.581 11.6473 16.5776 11.589C16.5743 11.5307 16.5473 11.4758 16.5018 11.4226C16.4547 11.371 16.3856 11.331 16.2964 11.3027C15.8921 11.3061 15.5081 11.3077 15.1476 11.3061C14.7855 11.3044 14.4267 11.3027 14.0696 11.3027C14.014 11.326 13.9702 11.3593 13.9348 11.4043C13.8995 11.4492 13.8776 11.4975 13.8708 11.5491C13.8624 11.6007 13.8742 11.6522 13.9028 11.7005C13.9332 11.7488 13.9871 11.7887 14.0645 11.8203L14.1757 11.8253C14.2936 11.8403 14.4081 11.847 14.5176 11.842C14.6271 11.8387 14.7349 11.8387 14.841 11.842C14.9472 11.8453 15.0516 11.8586 15.156 11.8803C15.2605 11.9019 15.3649 11.9452 15.471 12.0117C15.6007 12.0966 15.6917 12.2131 15.7422 12.3613H14.3037C14.1976 12.3646 14.1167 12.3946 14.0628 12.4511C14.0073 12.5077 13.9786 12.5693 13.9753 12.6375C13.9719 12.7058 13.9955 12.7707 14.046 12.8323C14.0965 12.8939 14.1757 12.9305 14.2818 12.9421L14.2835 12.9438Z" fill="white"/>
<path d="M10.6672 12.3397C11.0563 10.156 12.9631 8.55491 15.2083 8.52995C15.4004 8.52995 15.4004 8.23369 15.2083 8.23536C12.83 8.257 10.8037 9.94632 10.3792 12.2598C10.3455 12.4445 10.6335 12.5261 10.6672 12.338V12.3397Z" fill="white"/>
<path d="M10.6082 13.0787C10.6082 12.9972 10.6099 12.9173 10.6149 12.8374C10.6149 12.7558 10.5476 12.6909 10.465 12.6909C10.3842 12.6926 10.3185 12.7575 10.3168 12.8374C10.3134 12.9173 10.3101 12.9988 10.3101 13.0787C10.3101 13.1586 10.3774 13.2268 10.46 13.2268C10.5425 13.2268 10.6099 13.1603 10.6099 13.0787H10.6082Z" fill="white"/>
<path d="M15.1899 19.1902C13.0928 19.1902 11.1608 18.1517 10.0221 16.4141C8.61062 14.267 8.7639 11.3444 10.3978 9.30561C10.4483 9.24403 10.5157 9.2124 10.5864 9.2124C10.6841 9.2124 10.7784 9.27398 10.8256 9.37052C10.8728 9.46705 10.861 9.57523 10.7936 9.66011C10.4298 10.1112 10.1417 10.6138 9.93455 11.1547C9.40397 12.5428 9.45281 14.0507 10.071 15.4021C10.6892 16.7536 11.8025 17.7872 13.2073 18.3098C13.8289 18.5394 14.4807 18.656 15.1477 18.656C16.8439 18.656 18.4407 17.9153 19.5288 16.6238L19.5726 16.5722L19.5895 16.5755C19.6282 16.5489 19.6737 16.5339 19.7225 16.5339C19.8219 16.5339 19.9179 16.5988 19.9634 16.6953C20.0106 16.7919 19.9954 16.9001 19.9264 16.9833C19.5255 17.4643 19.0538 17.8787 18.5233 18.2182C17.5261 18.8557 16.3723 19.1935 15.1899 19.1935V19.1902Z" fill="#2F586D"/>
<path d="M10.5863 9.32891C10.6924 9.32891 10.7901 9.47538 10.7008 9.58689C10.3303 10.0479 10.0355 10.5622 9.82496 11.1114C8.70484 14.0407 10.2006 17.3112 13.1651 18.418C13.8119 18.6576 14.4823 18.7725 15.1476 18.7725C16.8405 18.7725 18.4979 18.0285 19.6197 16.6987H19.6248C19.6534 16.6637 19.6888 16.6504 19.7208 16.6504C19.8269 16.6504 19.9279 16.7985 19.8353 16.9084C19.4428 17.3794 18.9779 17.7888 18.4592 18.12C17.4468 18.7675 16.3116 19.0754 15.1898 19.0754C13.2123 19.0754 11.2752 18.115 10.1214 16.3525C8.71158 14.2088 8.89181 11.3744 10.4903 9.37884C10.5189 9.34389 10.5543 9.32891 10.5863 9.32891ZM10.5863 9.0959C10.4785 9.0959 10.3791 9.14417 10.3067 9.23072C9.4864 10.256 9.01477 11.4876 8.94234 12.7958C8.86823 14.1156 9.20848 15.3888 9.92434 16.4773C11.0832 18.2482 13.0523 19.3067 15.1914 19.3067C16.3975 19.3067 17.5715 18.9639 18.5889 18.3131C19.1295 17.9686 19.6096 17.5442 20.0189 17.0548C20.1166 16.9383 20.1368 16.7802 20.0711 16.6438C20.0054 16.5056 19.869 16.4157 19.7224 16.4157C19.6669 16.4157 19.6146 16.4291 19.5658 16.4524L19.5304 16.4457L19.4378 16.5472C18.3716 17.8121 16.8085 18.5378 15.1476 18.5378C14.4958 18.5378 13.8557 18.4229 13.2476 18.1983C10.4094 17.1397 8.97266 13.9974 10.0439 11.193C10.2461 10.6654 10.529 10.1727 10.8844 9.73002C10.9788 9.61185 10.9973 9.45374 10.9316 9.31726C10.8659 9.18078 10.7295 9.09424 10.5863 9.09424V9.0959Z" fill="#2F586D"/>
<path d="M20.8915 14.8045C20.8039 14.8045 20.7214 14.7646 20.6691 14.6997C20.6186 14.6364 20.6035 14.5582 20.622 14.4767C20.9707 13.1169 20.7871 11.6905 20.1082 10.4606C19.1229 8.67639 17.233 7.56793 15.1747 7.56793C14.2432 7.56793 13.3151 7.8026 12.4914 8.24532L12.4645 8.2603H12.4594C12.4274 8.27361 12.3954 8.27861 12.3617 8.27861C12.2405 8.27861 12.1293 8.1904 12.099 8.06723C12.0703 7.95239 12.1209 7.84088 12.2287 7.78596C13.1281 7.29997 14.1489 7.04199 15.1763 7.04199C15.685 7.04199 16.192 7.10524 16.6856 7.2284C19.9735 8.05059 21.9712 11.3627 21.1391 14.6115C21.1105 14.7296 21.0128 14.8062 20.8915 14.8062V14.8045Z" fill="#2F586D"/>
<path d="M15.1781 7.15684C15.6733 7.15684 16.1702 7.21675 16.6586 7.33825C19.8876 8.14547 21.8432 11.3876 21.0263 14.5799C21.0077 14.6548 20.9522 14.6864 20.8932 14.6864C20.8039 14.6864 20.7113 14.6131 20.7382 14.5016C21.092 13.1186 20.905 11.6539 20.2127 10.4023C19.1718 8.51662 17.2061 7.4481 15.1747 7.4481C14.2483 7.4481 13.3067 7.67112 12.4359 8.14047C12.4106 8.15379 12.387 8.15878 12.3634 8.15878C12.2287 8.15878 12.1411 7.96072 12.2843 7.88583C13.1787 7.40316 14.1742 7.15517 15.1764 7.15517M15.1781 6.92383C14.1304 6.92383 13.0911 7.1868 12.1714 7.68277C12.0198 7.76266 11.944 7.92743 11.9861 8.09387C12.0299 8.26696 12.1883 8.39345 12.3634 8.39345C12.4039 8.39345 12.4443 8.3868 12.483 8.37515H12.4965L12.5504 8.34685C13.3572 7.91246 14.2651 7.68277 15.1764 7.68277C17.1926 7.68277 19.0437 8.76793 20.0072 10.5155C20.6725 11.7205 20.8511 13.1169 20.5108 14.4467C20.4822 14.5632 20.5075 14.6814 20.5782 14.7713C20.6523 14.8661 20.7702 14.9211 20.8932 14.9211C21.0684 14.9211 21.2149 14.8062 21.2553 14.6365C22.1026 11.3277 20.0662 7.9524 16.7159 7.11523C16.214 6.9904 15.6969 6.92549 15.1781 6.92549V6.92383Z" fill="#2F586D"/>
<path d="M16.5912 9.19397C16.9466 9.2955 17.2785 9.46859 17.5631 9.70326C17.6372 9.76318 17.7417 9.65999 17.6692 9.59841C17.3661 9.34709 17.0123 9.16068 16.6317 9.0525C16.5912 9.04251 16.5508 9.06748 16.5424 9.10576C16.5323 9.14404 16.5559 9.18232 16.5929 9.19397H16.5912Z" fill="white"/>
<path d="M43.8684 14.9827H9.04532C6.94572 14.9827 5.24365 16.6645 5.24365 18.7391V38.1505C5.24365 40.2251 6.94572 41.9069 9.04532 41.9069H43.8684C45.968 41.9069 47.6701 40.2251 47.6701 38.1505V18.7391C47.6701 16.6645 45.968 14.9827 43.8684 14.9827Z" fill="white"/>
<path d="M43.8684 15.8147C45.5039 15.8147 46.8278 17.1246 46.8278 18.739V38.1487C46.8278 39.7648 45.5022 41.073 43.8684 41.073H9.04694C7.4114 41.073 6.08747 39.7632 6.08747 38.1487V18.739C6.08747 17.1229 7.41308 15.8147 9.04694 15.8147H43.8684ZM43.8684 14.1504H9.04694C6.48667 14.1504 4.40308 16.2092 4.40308 18.739V38.1487C4.40308 40.6785 6.48667 42.7374 9.04694 42.7374H43.8684C46.4286 42.7374 48.5122 40.6785 48.5122 38.1487V18.739C48.5122 16.2092 46.4286 14.1504 43.8684 14.1504Z" fill="#254D5E"/>
<path d="M26.3002 19.0718C30.8185 19.0718 34.4813 15.4526 34.4813 10.9881C34.4813 6.52352 30.8185 2.9043 26.3002 2.9043C21.7819 2.9043 18.1191 6.52352 18.1191 10.9881C18.1191 15.4526 21.7819 19.0718 26.3002 19.0718Z" fill="#5ABE80"/>
<path d="M26.5814 19.1302C26.4416 19.1385 26.2984 19.1402 26.1569 19.1402C21.6377 19.1402 17.9758 15.5202 17.9758 11.0564C17.9758 6.59263 21.6394 2.97266 26.1569 2.97266C26.2984 2.97266 26.4416 2.97266 26.5814 2.98264C22.0672 3.19069 18.5805 6.97543 18.7911 11.4359C18.9881 15.6034 22.3637 18.9388 26.5814 19.1335V19.1302Z" fill="#00A44E"/>
<path d="M25.9094 2.98411C26.0492 2.97579 26.1924 2.97412 26.3339 2.97412C30.8531 2.97412 34.515 6.59409 34.515 11.0579C34.515 15.5217 30.8514 19.1417 26.3339 19.1417C26.1924 19.1417 26.0492 19.1417 25.9094 19.1317C30.4236 18.9236 33.9103 15.1389 33.6997 10.6784C33.5027 6.51088 30.1271 3.17551 25.9094 2.98078V2.98411Z" fill="#00A44E"/>
<path d="M26.3002 17.6721C30.0361 17.6721 33.0647 14.6795 33.0647 10.988C33.0647 7.29651 30.0361 4.30396 26.3002 4.30396C22.5642 4.30396 19.5356 7.29651 19.5356 10.988C19.5356 14.6795 22.5642 17.6721 26.3002 17.6721Z" fill="#00A44E"/>
<path d="M25.0269 10.7452H26.9993C26.9538 10.8101 26.91 10.86 26.8645 10.8933C26.7298 11.0131 26.5866 11.1113 26.4316 11.1845C26.2784 11.2578 26.12 11.316 25.9567 11.356C25.7949 11.3976 25.6299 11.4259 25.4614 11.4425C25.293 11.4592 25.1229 11.4692 24.9494 11.4758C24.882 11.4925 24.8163 11.5241 24.7523 11.5707C24.6883 11.6173 24.6395 11.6739 24.6058 11.7404C24.5721 11.807 24.5586 11.8802 24.5637 11.9601C24.5687 12.04 24.6058 12.1249 24.6731 12.2131C25.0083 12.5277 25.3435 12.8456 25.677 13.1635C26.0106 13.4814 26.3441 13.8009 26.6809 14.1221C26.7988 14.1821 26.9083 14.2037 27.0077 14.1837C27.1088 14.1637 27.1863 14.1221 27.2435 14.0556C27.3008 13.989 27.3294 13.9041 27.3311 13.8026C27.3345 13.6994 27.2957 13.5962 27.2183 13.4913C26.7769 13.0653 26.3289 12.6392 25.8758 12.2148C26.1891 12.1698 26.4653 12.0933 26.7062 11.9818C26.9471 11.8719 27.1846 11.7105 27.4204 11.5008C27.5383 11.3976 27.6377 11.2811 27.7185 11.1513C27.7994 11.0231 27.8634 10.8866 27.9072 10.7452H28.3687C28.4967 10.7169 28.5961 10.6669 28.6618 10.592C28.7292 10.5171 28.7645 10.4356 28.7713 10.3474C28.7763 10.2592 28.7494 10.1743 28.687 10.0944C28.6247 10.0145 28.5304 9.95459 28.4024 9.91631H27.9746C27.9527 9.78982 27.9173 9.66499 27.8701 9.54349C27.823 9.422 27.7589 9.30549 27.6815 9.19564H27.9341C28.0621 9.16735 28.1581 9.11908 28.2188 9.04585C28.2794 8.97428 28.3081 8.89606 28.303 8.81284C28.298 8.72962 28.2609 8.6514 28.1935 8.5765C28.1261 8.50161 28.0285 8.44502 27.9004 8.40674C27.3244 8.41173 26.7786 8.4134 26.2632 8.41173C25.7478 8.4084 25.2357 8.40674 24.727 8.40674C24.6479 8.44003 24.5839 8.48829 24.5333 8.55154C24.4828 8.61478 24.4525 8.68469 24.4407 8.75958C24.4289 8.83448 24.4457 8.90605 24.4862 8.97595C24.5283 9.04585 24.6058 9.10244 24.7169 9.14571L24.877 9.15403C25.0454 9.17567 25.2071 9.18399 25.3637 9.179C25.5204 9.17401 25.6737 9.17401 25.8253 9.179C25.9769 9.18399 26.1268 9.2023 26.275 9.23226C26.4232 9.26222 26.5731 9.32546 26.7247 9.41867C26.91 9.54016 27.038 9.7066 27.1105 9.91631H25.0622C24.9106 9.9213 24.7961 9.96457 24.7186 10.0445C24.6395 10.1244 24.599 10.2126 24.5923 10.3091C24.5872 10.4056 24.6209 10.4988 24.6934 10.587C24.7658 10.6753 24.8786 10.7285 25.0285 10.7452H25.0269Z" fill="white"/>
<path d="M19.876 9.88454C20.4285 6.77386 23.1471 4.4937 26.344 4.45874C26.6169 4.45874 26.6186 4.036 26.344 4.03933C22.9567 4.07095 20.0697 6.47761 19.4667 9.77137C19.4195 10.0343 19.8288 10.1492 19.876 9.88288V9.88621V9.88454Z" fill="white"/>
<path d="M19.7899 10.9366C19.7899 10.8217 19.7933 10.7069 19.7983 10.592C19.7983 10.4772 19.7023 10.384 19.5844 10.3823C19.4682 10.3857 19.3756 10.4772 19.3722 10.592C19.3655 10.7069 19.3638 10.8217 19.3638 10.9366C19.3638 11.0514 19.4598 11.1463 19.576 11.1463C19.6922 11.1463 19.7882 11.0514 19.7882 10.9366H19.7899Z" fill="white"/>
<path d="M26.3154 19.5927C23.3441 19.5927 20.6086 18.1231 18.9967 15.6615C16.9973 12.6224 17.2146 8.4815 19.5273 5.59384C19.5896 5.51895 19.6704 5.479 19.758 5.479C19.8793 5.479 19.9938 5.55556 20.0528 5.6754C20.1118 5.7969 20.0966 5.93171 20.0124 6.0349C19.4919 6.68233 19.0775 7.403 18.7828 8.17526C17.2146 12.2812 19.3184 16.8815 23.4721 18.4327C24.3632 18.7622 25.298 18.9303 26.2547 18.9303C28.6853 18.9303 30.9744 17.8685 32.5341 16.0177L32.5779 15.9661L32.5931 15.9694C32.6453 15.9295 32.7059 15.9079 32.77 15.9079C32.8912 15.9079 33.0125 15.9877 33.0681 16.1092C33.1254 16.2307 33.1085 16.3639 33.0226 16.4671C32.455 17.1478 31.7863 17.737 31.035 18.2163C29.6218 19.1201 27.9897 19.5961 26.3137 19.5961L26.3154 19.5927Z" fill="#2F586D"/>
<path d="M19.7597 5.59385C19.9096 5.59385 20.0494 5.80189 19.9214 5.96167C19.3941 6.61743 18.9731 7.34974 18.6732 8.13366C17.0781 12.3062 19.2089 16.9647 23.4316 18.5409C24.3513 18.8821 25.308 19.0452 26.2564 19.0452C28.6684 19.0452 31.0299 17.985 32.6267 16.0909H32.6351C32.6773 16.0427 32.7244 16.021 32.7733 16.021C32.9249 16.021 33.068 16.2307 32.935 16.3889C32.3741 17.0596 31.7138 17.6421 30.9743 18.1148C29.5325 19.0368 27.9155 19.4762 26.317 19.4762C23.5007 19.4762 20.7417 18.1081 19.0977 15.5983C17.0899 12.5442 17.3476 8.50814 19.6232 5.66542C19.6653 5.61549 19.7142 5.59385 19.7613 5.59385M19.7597 5.36084C19.6367 5.36084 19.5222 5.41576 19.4396 5.51729C18.2841 6.95862 17.6205 8.69454 17.5177 10.5386C17.4133 12.3977 17.8917 14.1919 18.8989 15.7248C20.5328 18.2196 23.3053 19.7092 26.317 19.7092C28.0149 19.7092 29.6689 19.2249 31.1024 18.3095C31.862 17.8235 32.5408 17.2277 33.1169 16.537C33.2331 16.3988 33.255 16.2191 33.1775 16.056C33.1 15.8929 32.9417 15.788 32.7716 15.788C32.6992 15.788 32.6284 15.808 32.5661 15.8446L32.5391 15.8396L32.4448 15.9411C30.907 17.7653 28.6516 18.8122 26.2564 18.8122C25.3148 18.8122 24.3917 18.6474 23.5159 18.3228C19.4228 16.795 17.3493 12.2613 18.8956 8.21687C19.187 7.4546 19.5946 6.74558 20.1083 6.10647C20.2212 5.96667 20.2414 5.78525 20.1622 5.62381C20.0847 5.46403 19.9264 5.36084 19.7613 5.36084H19.7597Z" fill="#2F586D"/>
<path d="M34.4392 13.3448C34.3314 13.3448 34.227 13.2949 34.1613 13.2133C34.0989 13.1351 34.0787 13.0385 34.104 12.937C34.6026 10.9881 34.3415 8.94423 33.3679 7.18002C31.9564 4.6219 29.2462 3.03411 26.2952 3.03411C24.9594 3.03411 23.6305 3.37031 22.4497 4.00609L22.4227 4.02107H22.4177C22.3756 4.03938 22.3318 4.0477 22.288 4.0477C22.1381 4.0477 22 3.93619 21.9629 3.78473C21.9275 3.64326 21.9899 3.50845 22.1212 3.43855C23.3963 2.7495 24.8415 2.38501 26.2968 2.38501C27.0161 2.38501 27.7353 2.47322 28.4343 2.64798C30.6897 3.21219 32.588 4.61025 33.7789 6.58584C34.9698 8.55977 35.3117 10.8749 34.7407 13.1035C34.7053 13.2483 34.5857 13.3431 34.4375 13.3431L34.4392 13.3448Z" fill="#2F586D"/>
<path d="M26.2984 2.50156C27.0042 2.50156 27.7116 2.58811 28.4073 2.7612C33.0074 3.91127 35.7934 8.52986 34.6294 13.0752C34.6042 13.1817 34.5233 13.2267 34.4391 13.2267C34.3128 13.2267 34.1797 13.1218 34.2185 12.9637C34.7221 10.9931 34.456 8.90767 33.4706 7.12348C31.9883 4.43721 29.1872 2.91599 26.2951 2.91599C24.9745 2.91599 23.6337 3.23388 22.394 3.90129C22.3587 3.9196 22.3233 3.92792 22.2913 3.92792C22.0993 3.92792 21.9729 3.64664 22.1801 3.53846C23.4535 2.85108 24.8718 2.49824 26.3001 2.49824M26.2984 2.26855C24.8229 2.26855 23.3592 2.63804 22.0656 3.33707C21.887 3.43027 21.8011 3.61668 21.85 3.81141C21.9005 4.01446 22.0858 4.16259 22.2896 4.16259C22.3418 4.16259 22.3923 4.15427 22.4412 4.13596H22.4513L22.5052 4.10767C23.6674 3.48187 24.9779 3.15066 26.2934 3.15066C29.2007 3.15066 31.8704 4.71682 33.2617 7.23665C34.2201 8.97424 34.4778 10.9881 33.9877 12.9071C33.954 13.0453 33.981 13.1784 34.0652 13.2849C34.1528 13.3948 34.2909 13.4613 34.4357 13.4613C34.6412 13.4613 34.8063 13.3315 34.8552 13.1301C35.4329 10.8733 35.0876 8.52819 33.8799 6.52597C32.6722 4.52376 30.7486 3.10739 28.4629 2.53485C27.7554 2.35843 27.0261 2.26855 26.2968 2.26855H26.2984Z" fill="#2F586D"/>
<path d="M28.3113 5.40426C28.8183 5.54906 29.29 5.79539 29.6959 6.12992C29.8003 6.21647 29.9519 6.06834 29.8458 5.98179C29.4129 5.62396 28.9093 5.35933 28.3669 5.20288C28.3097 5.18956 28.2524 5.22285 28.2389 5.27944C28.2254 5.3327 28.2574 5.38928 28.3113 5.40426Z" fill="white"/>
<path d="M31.456 28.4671C31.456 28.6219 31.4375 28.7351 31.3988 28.8033C31.3617 28.8716 31.3044 28.9332 31.2286 28.9897C31.1596 29.0463 31.1074 29.1063 31.0737 29.1712C31.0383 29.2361 31.0248 29.3443 31.0316 29.4924C31.0383 29.6538 31.072 29.767 31.136 29.8319C31.1983 29.8968 31.2926 29.9384 31.419 29.9534C31.5453 29.9684 31.7525 29.9767 32.0422 29.9767H32.8541C33.1438 29.9767 33.351 29.9684 33.4773 29.9534C33.6036 29.9384 33.6979 29.8968 33.7603 29.8319C33.8226 29.767 33.858 29.6538 33.8647 29.4924C33.8714 29.3426 33.8563 29.2361 33.8226 29.1712C33.7872 29.1063 33.7367 29.0447 33.6676 28.9897C33.5918 28.9332 33.5362 28.8716 33.4975 28.8033C33.4588 28.7351 33.4402 28.6236 33.4402 28.4671V25.3631C33.4402 25.2266 33.4689 25.1201 33.5245 25.0469C33.58 24.9737 33.6558 24.9354 33.7502 24.9354C33.8327 24.9354 33.895 24.9587 33.9388 25.0053C33.9826 25.0519 34.0298 25.1185 34.0803 25.205C34.0988 25.2416 34.1275 25.3049 34.1645 25.3914C34.2403 25.5645 34.3178 25.6977 34.3953 25.7875C34.4728 25.8774 34.5924 25.9223 34.749 25.9223C34.7928 25.9223 34.8585 25.9124 34.9478 25.894C34.9663 25.8874 34.9831 25.8841 34.9949 25.8841C35.2274 25.8275 35.3604 25.7093 35.3958 25.5246C35.4295 25.3415 35.4261 25.1251 35.3823 24.8771C35.3756 24.8522 35.3722 24.8339 35.3722 24.8205L35.2964 24.3828C35.2459 24.0782 35.1533 23.8735 35.0185 23.767C34.8838 23.6621 34.7018 23.6089 34.4761 23.6089C34.3448 23.6089 34.2033 23.6272 34.0517 23.6655C33.8563 23.7221 33.6457 23.7487 33.42 23.7487H31.4678C31.2421 23.7487 31.0299 23.7204 30.8362 23.6655C30.6846 23.6289 30.5431 23.6089 30.4117 23.6089C30.186 23.6089 30.0041 23.6621 29.8693 23.767C29.7346 23.8719 29.6419 24.0782 29.5914 24.3828L29.5156 24.8205C29.5156 24.8339 29.5122 24.8522 29.5055 24.8771C29.4617 25.1251 29.4567 25.3415 29.492 25.5246C29.5274 25.7076 29.6605 25.8275 29.8929 25.8841C29.9872 25.9024 30.0664 25.9124 30.1287 25.9124C30.2921 25.9124 30.4134 25.8674 30.4926 25.7775C30.5717 25.6877 30.6475 25.5578 30.7233 25.3914C30.7604 25.3049 30.789 25.2416 30.8075 25.205C30.8581 25.1185 30.9069 25.0519 30.9541 25.0053C31.0012 24.9587 31.0686 24.9354 31.1562 24.9354C31.3566 24.9537 31.4577 25.0968 31.4577 25.3648V28.4688L31.456 28.4671ZM26.2395 27.8064C26.6353 27.9811 26.9149 28.1343 27.0783 28.2674C27.2417 28.4006 27.3242 28.5304 27.3242 28.6535C27.3242 28.7468 27.2855 28.8216 27.2063 28.8766C27.1271 28.9315 27.0126 28.9598 26.8627 28.9598C26.642 28.9598 26.4298 28.9032 26.226 28.7917C26.0222 28.6802 25.8622 28.5254 25.7493 28.3257C25.655 28.1526 25.559 28.0211 25.4613 27.9345C25.3636 27.848 25.217 27.8047 25.0233 27.8047C24.7656 27.8047 24.5483 27.8696 24.3732 28.0011C24.1963 28.1309 24.1087 28.3207 24.1087 28.5703C24.1087 28.8566 24.2199 29.1146 24.4439 29.3443C24.6662 29.5739 24.9779 29.7537 25.3771 29.8802C25.7763 30.0067 26.2277 30.0716 26.7313 30.0716C27.5617 30.0716 28.2237 29.8985 28.7172 29.549C29.2107 29.2011 29.4583 28.7251 29.4583 28.1226C29.4583 27.7498 29.364 27.4319 29.1754 27.1673C28.9867 26.9026 28.7661 26.6929 28.5151 26.5382C28.2641 26.3834 27.9491 26.2219 27.5718 26.0538C27.5398 26.0355 27.5146 26.0222 27.496 26.0172C27.112 25.8441 26.8374 25.6893 26.6707 25.5562C26.5039 25.423 26.4214 25.2682 26.4214 25.0952C26.4214 24.8771 26.5376 24.7689 26.77 24.7689C27.053 24.7689 27.3074 24.9237 27.5348 25.235L27.5634 25.2716C27.7083 25.4763 27.8329 25.6211 27.9356 25.7043C28.0384 25.7875 28.1816 25.8308 28.3652 25.8308C28.6161 25.8308 28.8183 25.7725 28.9682 25.6544C29.1198 25.5362 29.1939 25.3565 29.1939 25.1135C29.1939 24.6841 28.9715 24.3345 28.5286 24.0649C28.0856 23.7953 27.5213 23.6588 26.8357 23.6588C26.0559 23.6588 25.436 23.8352 24.9779 24.1897C24.518 24.5443 24.2889 25.0186 24.2889 25.6161C24.2889 26.1753 24.4675 26.6147 24.8263 26.9343C25.185 27.2538 25.6567 27.5451 26.2411 27.8064H26.2395ZM23.344 28.1875C23.3625 28.0377 23.3945 27.9296 23.4383 27.8613C23.4821 27.7931 23.5428 27.7315 23.6169 27.6749C23.6859 27.625 23.7381 27.5701 23.7718 27.5068C23.8055 27.4436 23.8207 27.3354 23.8139 27.1806C23.8072 27.0191 23.7735 26.906 23.7095 26.8411C23.6472 26.7762 23.5529 26.7362 23.4265 26.7196C23.3002 26.7046 23.093 26.6963 22.8033 26.6963H22.0386C21.7489 26.6963 21.5417 26.7046 21.4154 26.7196C21.289 26.7345 21.1947 26.7762 21.1324 26.8411C21.0701 26.906 21.0347 27.0191 21.028 27.1806C21.0212 27.3304 21.0364 27.4336 21.0701 27.4935C21.1054 27.5534 21.1593 27.6067 21.2351 27.6566C21.3042 27.6999 21.3581 27.7515 21.3952 27.8097C21.4322 27.868 21.4524 27.9695 21.4524 28.1126C21.4524 28.4854 21.3076 28.6719 21.0179 28.6719C20.7467 28.6719 20.5041 28.4938 20.2868 28.1359C20.0695 27.7781 19.9112 27.3271 19.8101 26.7795C19.7226 26.2818 19.7141 25.8608 19.7866 25.5162C19.859 25.1717 20.0173 24.9737 20.2632 24.9237C20.4637 24.8871 20.6557 24.9204 20.8393 25.0269C21.0212 25.1334 21.1728 25.3165 21.2924 25.5762C21.3985 25.8191 21.5147 26.0039 21.636 26.1304C21.759 26.2585 21.9392 26.3218 22.1784 26.3218C22.4934 26.3218 22.7545 26.2419 22.9667 26.0838C23.1789 25.9257 23.2834 25.6943 23.2834 25.3897C23.2834 25.0852 23.1739 24.7823 22.9532 24.5176C22.7326 24.253 22.4294 24.0433 22.0436 23.8885C21.6562 23.7337 21.2284 23.6555 20.7568 23.6555C20.1403 23.6555 19.5945 23.787 19.1195 24.0516C18.6445 24.3162 18.2773 24.6907 18.0163 25.175C17.7552 25.6594 17.6255 26.2219 17.6255 26.8627C17.6255 27.5035 17.7535 28.056 18.0129 28.5404C18.2706 29.0247 18.6328 29.4008 19.0976 29.6688C19.5625 29.9368 20.0999 30.0699 20.7113 30.0699C21.4221 30.0699 22.0218 29.8968 22.5136 29.5473C23.0038 29.1995 23.28 28.7451 23.344 28.1859V28.1875Z" fill="#00A44D"/>
<path d="M36.3122 31.1018H16.3269C16.059 31.1018 15.8418 31.3164 15.8418 31.5811C15.8418 31.8459 16.059 32.0605 16.3269 32.0605H36.3122C36.5801 32.0605 36.7973 31.8459 36.7973 31.5811C36.7973 31.3164 36.5801 31.1018 36.3122 31.1018Z" fill="#2F586D"/>
<path d="M34.3784 32.7512H18.2588C17.9909 32.7512 17.7737 32.9658 17.7737 33.2306C17.7737 33.4953 17.9909 33.7099 18.2588 33.7099H34.3784C34.6463 33.7099 34.8635 33.4953 34.8635 33.2306C34.8635 32.9658 34.6463 32.7512 34.3784 32.7512Z" fill="#2F586D"/>
<path d="M32.1164 34.5288H20.5227C20.2548 34.5288 20.0376 34.7434 20.0376 35.0081C20.0376 35.2729 20.2548 35.4875 20.5227 35.4875H32.1164C32.3843 35.4875 32.6015 35.2729 32.6015 35.0081C32.6015 34.7434 32.3843 34.5288 32.1164 34.5288Z" fill="#2F586D"/>
<path d="M4.69437 44.167C5.2098 44.5065 5.48267 44.9626 5.63089 45.5501C5.7168 46.1343 5.67469 46.6253 5.33949 47.1229C5.01609 47.5107 4.71122 47.8236 4.21432 47.9684C3.36707 48.0433 2.76911 48.0183 2.10209 47.4674C1.65236 46.9415 1.41149 46.4605 1.44855 45.7631C1.54119 45.1357 1.88144 44.6164 2.35812 44.2036C3.09589 43.7676 3.93977 43.7925 4.69606 44.167H4.69437ZM2.94429 45.3637C2.70511 45.6 2.67479 45.7082 2.65121 46.0394C2.8028 46.4189 2.89039 46.5837 3.23737 46.8117C3.61805 46.8599 3.77469 46.8433 4.0981 46.6303C4.34907 46.3889 4.3996 46.3007 4.44677 45.9612C4.43891 45.7448 4.35525 45.5518 4.19579 45.382C3.70732 45.0058 3.44287 45.0042 2.94429 45.3637Z" fill="#00A44D"/>
<path d="M46.9188 1.50301C47.3871 1.79428 47.6414 2.14213 47.798 2.66141C47.8941 3.36043 47.8873 3.95794 47.4494 4.53547C47.0535 4.96987 46.6476 5.23117 46.0564 5.29941C45.4231 5.30773 44.8807 5.29774 44.3787 4.87999C43.8835 4.28582 43.6561 3.77985 43.6679 3.00926C43.7286 2.43672 43.9947 2.03894 44.4208 1.6578C45.1906 1.06695 46.0682 1.04032 46.9188 1.50135V1.50301ZM45.2277 2.56987C44.9363 2.88443 44.8504 3.00926 44.8672 3.432C44.9503 3.65392 45.0806 3.84698 45.258 4.0112C45.5258 4.11439 45.7549 4.14268 46.0395 4.10773C46.3191 3.93797 46.4792 3.81813 46.6257 3.52853C46.6779 3.13908 46.6611 2.99594 46.4185 2.67805C45.9654 2.33686 45.7229 2.26529 45.2277 2.56987Z" fill="#00A44D"/>
<path d="M45.7296 43.5845C45.925 43.6122 46.0771 43.6633 46.1861 43.7376C46.373 43.9972 46.3444 44.1986 46.3343 44.5148C46.3309 44.6197 46.3292 44.7246 46.3259 44.8327C46.3225 44.9126 46.3191 44.9925 46.3158 45.0757C46.3966 45.0741 46.4775 45.0707 46.5617 45.0691C46.6678 45.0674 46.7739 45.0658 46.8834 45.0641C46.9895 45.0624 47.0939 45.0591 47.2034 45.0574C47.3932 45.0696 47.5858 45.1401 47.7812 45.2688C47.8772 45.5817 47.9227 45.7598 47.7744 46.0577C47.6487 46.1753 47.4836 46.2463 47.2792 46.2707C47.1647 46.2658 47.0501 46.2624 46.9322 46.2574C46.8177 46.2541 46.7015 46.2508 46.5836 46.2474C46.496 46.2424 46.4067 46.2391 46.3158 46.2341C46.3208 46.3207 46.3242 46.4089 46.3292 46.4988C46.3326 46.613 46.336 46.7279 46.3393 46.8433C46.3444 46.9565 46.3478 47.0696 46.3528 47.1861C46.327 47.3881 46.254 47.5512 46.1338 47.6755C45.9946 47.7443 45.8413 47.7748 45.674 47.767C45.4096 47.6721 45.3102 47.6155 45.1434 47.3925C45.1243 47.205 45.1182 47.0058 45.1249 46.795C45.1283 46.6902 45.1299 46.5853 45.1333 46.4771C45.1367 46.3972 45.1401 46.3173 45.1434 46.2341C45.0626 46.2375 44.9817 46.2408 44.8975 46.2441C44.7908 46.2463 44.6836 46.2491 44.5758 46.2524C44.4697 46.2558 44.3652 46.2591 44.2557 46.2624C44.066 46.2436 43.9104 46.1914 43.7892 46.106C43.614 45.8513 43.6342 45.6633 43.678 45.3653C43.8987 45.1456 44.0284 45.0807 44.3416 45.0474C44.4377 45.0508 44.532 45.0541 44.6297 45.0574C44.7257 45.0608 44.8217 45.0624 44.9211 45.0657C44.9935 45.0691 45.0676 45.0724 45.1417 45.0757C45.1384 45.0042 45.135 44.9309 45.1316 44.8577C45.1283 44.7628 45.1266 44.668 45.1232 44.5698C45.1198 44.4749 45.1165 44.3817 45.1131 44.2852C45.1586 43.8558 45.2883 43.6494 45.7279 43.5861L45.7296 43.5845Z" fill="#00A44D"/>
<path d="M1.69108 4.36238C2.08298 4.32022 2.36652 4.35684 2.54169 4.47223C2.72361 4.73354 2.69666 4.93659 2.68655 5.24949C2.68318 5.35434 2.6815 5.45919 2.67813 5.56738C2.67476 5.64727 2.67139 5.72716 2.66802 5.81037C2.74887 5.80704 2.82973 5.80372 2.91394 5.80039C3.02062 5.79817 3.12786 5.79539 3.23566 5.79206C3.34178 5.78874 3.44621 5.78541 3.5557 5.78208C3.74547 5.80094 3.901 5.85309 4.02227 5.93853C4.19577 6.18985 4.1705 6.38458 4.13344 6.67917C4.05933 6.78679 3.96164 6.88333 3.84036 6.96876C3.65059 6.98763 3.44902 6.99373 3.23566 6.98707C3.12955 6.98374 3.02343 6.98208 2.91394 6.97875C2.83309 6.97542 2.75112 6.97209 2.66802 6.96876C2.67139 7.04865 2.67476 7.12965 2.67813 7.21176C2.6815 7.31661 2.68318 7.42147 2.68655 7.52965C2.68992 7.63395 2.69329 7.73936 2.69666 7.84588C2.67757 8.0334 2.62479 8.18707 2.53833 8.30691C2.28398 8.47833 2.08691 8.45337 1.78877 8.41675C1.67985 8.34352 1.58215 8.24699 1.49569 8.12716C1.4766 7.93964 1.47042 7.74047 1.47716 7.52965C1.48053 7.4248 1.48221 7.31994 1.48558 7.21176C1.48895 7.13187 1.49232 7.05198 1.49569 6.96876C1.41484 6.97209 1.33399 6.97542 1.24977 6.97875C1.14309 6.98097 1.03585 6.98374 0.928048 6.98707C0.821931 6.9904 0.717499 6.99373 0.608013 6.99706C0.418239 6.9782 0.262713 6.92716 0.141437 6.84394C-0.0438462 6.56765 -0.00510516 6.32299 0.0302671 6.00344C0.375567 5.77709 0.522109 5.7904 0.928048 5.79872C1.03416 5.80039 1.14028 5.80205 1.24977 5.80372C1.33062 5.80593 1.41259 5.80815 1.49569 5.81037C1.494 5.73048 1.49063 5.65059 1.48895 5.56738C1.48727 5.46252 1.48558 5.35767 1.4839 5.24949C1.48221 5.14463 1.47884 5.04144 1.47716 4.93326C1.48951 4.74574 1.56082 4.55545 1.69108 4.36238Z" fill="#00A44D"/>
<path d="M9.36021 45.5383C9.58817 45.5705 9.76503 45.6387 9.8908 45.743C10.0239 46.0376 10.0357 46.2324 9.99523 46.5519C9.92224 46.705 9.82454 46.8338 9.70214 46.9381C9.30294 46.988 9.16146 46.968 8.82289 46.745C8.72407 46.3134 8.72407 45.9755 8.82289 45.7314C8.95315 45.6349 9.13226 45.5705 9.36021 45.5383Z" fill="#00A44D"/>
<path d="M47.4931 8.06372C47.7211 8.0959 47.8979 8.16414 48.0237 8.26844C48.1584 8.56636 48.1753 8.75443 48.1281 9.07731C48.0259 9.23376 47.8957 9.36247 47.7373 9.46344C47.5015 9.45901 47.2736 9.42683 47.0535 9.36691C46.8261 9.03071 46.8177 8.89423 46.8581 8.49812C47.0181 8.14694 47.1023 8.11864 47.4931 8.06372Z" fill="#00A44D"/>
<path d="M31.5302 -4.46293e-05C31.7582 0.0365712 31.9373 0.120899 32.0675 0.252937C32.1922 0.615767 32.1652 0.843783 32.0675 1.21161C31.729 1.43463 31.5875 1.4546 31.1883 1.40467C30.9373 1.18997 30.9003 1.05516 30.8582 0.728943C30.9205 0.237958 31.0266 0.0781801 31.5302 -0.00170898V-4.46293e-05Z" fill="#00A44D"/>
<path d="M50.3651 40.2109C50.5975 40.2353 50.7789 40.2958 50.9091 40.3924C51.0607 40.7668 50.9984 41.0132 50.9091 41.4059C50.7137 41.5347 50.4998 41.5951 50.2674 41.5874C50.0439 41.5308 49.8833 41.4503 49.7856 41.346C49.7166 41.0215 49.7621 40.7618 49.8345 40.4406C49.9647 40.3119 50.1416 40.2353 50.3651 40.2109Z" fill="#00A44D"/>
<path d="M38.0824 4.12102C38.3059 4.17761 38.4665 4.25806 38.5642 4.36236C38.6332 4.6869 38.5877 4.94654 38.5153 5.26776C38.385 5.39648 38.2082 5.47304 37.9847 5.49745C37.7523 5.47304 37.5709 5.41256 37.4407 5.31603C37.2891 4.94155 37.3514 4.69523 37.4407 4.30244C37.6361 4.17373 37.85 4.11326 38.0824 4.12102Z" fill="#00A44D"/>
<path d="M1.59344 39.7948C1.82083 40.131 1.82926 40.2675 1.78883 40.6636C1.71921 40.8167 1.62151 40.9454 1.49575 41.0497C1.26779 41.0864 1.03984 41.0864 0.811883 41.0497C0.681623 40.9133 0.583929 40.7524 0.518799 40.5671C0.53059 40.2625 0.571015 40.0644 0.725979 39.8015C1.02917 39.6317 1.26667 39.7133 1.59344 39.7948Z" fill="#00A44D"/>
<path d="M16.7815 43.1435C17.014 43.1635 17.1931 43.2079 17.3189 43.2767C17.4856 43.5762 17.4637 43.8059 17.4233 44.1388C17.3132 44.2952 17.183 44.424 17.0325 44.5249C16.8652 44.5527 16.7024 44.5527 16.544 44.5249C16.3335 44.3668 16.2594 44.2836 16.2156 44.024C16.2156 43.9491 16.2189 43.8725 16.2206 43.7943C16.2206 43.7177 16.2206 43.6428 16.2206 43.5646C16.2745 43.1968 16.4244 43.1751 16.7815 43.1418V43.1435Z" fill="#00A44D"/>
<path d="M5.94763 10.359C6.1711 10.4156 6.34796 10.5404 6.47822 10.7334C6.51303 11.1207 6.47822 11.4081 6.37378 11.5956C6.07902 11.7554 5.82973 11.7271 5.50127 11.6988C5.26545 11.4658 5.27725 11.3975 5.27556 11.078C5.27556 11.0031 5.27219 10.9265 5.27051 10.8483C5.29409 10.7074 5.34799 10.5792 5.43221 10.4638C5.54338 10.3862 5.71463 10.3512 5.94595 10.359H5.94763Z" fill="#00A44D"/>
</g>
<defs>
<clipPath id="clip0_1_6206">
<rect width="51" height="48" fill="white"/>
</clipPath>
</defs>
</svg>
