<svg width="60" height="37" viewBox="0 0 60 37" fill="none" xmlns="http://www.w3.org/2000/svg">
<g clip-path="url(#clip0_1_6584)">
<path d="M9.65063 29.8652C8.9012 29.8652 8.2654 29.3286 8.13738 28.5907L4.81023 9.36858C4.73974 8.96437 4.8318 8.55585 5.06771 8.22069C5.30362 7.88553 5.65748 7.66256 6.06168 7.59208L43.5105 1.10895C43.5968 1.09457 43.686 1.08594 43.7737 1.08594C44.5232 1.08594 45.159 1.62248 45.287 2.36041L48.6141 21.5825C48.758 22.4183 48.197 23.2137 47.3627 23.359L9.91387 29.8421C9.82757 29.8565 9.73838 29.8652 9.65063 29.8652Z" fill="white"/>
<path d="M43.7737 1.87698C44.1304 1.87698 44.4454 2.13303 44.5073 2.49552L47.8344 21.7176C47.9049 22.1233 47.6331 22.5088 47.2274 22.5793L9.77862 29.0624C9.73547 29.0696 9.69232 29.0739 9.6506 29.0739C9.29386 29.0739 8.97884 28.8179 8.91699 28.4554L5.58984 9.23325C5.51935 8.82761 5.79122 8.4421 6.19687 8.37162L43.6457 1.88849C43.6888 1.8813 43.732 1.87698 43.7737 1.87698ZM43.7737 0.294678C43.6413 0.294678 43.5076 0.306185 43.3752 0.329201L5.92644 6.81233C4.66203 7.03097 3.81047 8.23784 4.02911 9.50368L7.3577 28.7258C7.55189 29.8449 8.51566 30.6562 9.6506 30.6562C9.78294 30.6562 9.91672 30.6447 10.0491 30.6217L47.4978 24.1385C48.7623 23.9199 49.6138 22.713 49.3952 21.4472L46.068 2.22509C45.8738 1.10597 44.9101 0.294678 43.7751 0.294678L43.7737 0.294678Z" fill="#244D5E"/>
<path d="M5.91064 11.247L44.8698 4.70776L45.8192 9.0217L6.69892 16.0025L5.91064 11.247Z" fill="#00A44E"/>
<path d="M44.8698 4.71083L45.8163 9.02333L6.70033 16.0013L5.91206 11.2472L44.8698 4.71083ZM44.8727 4.70652H44.8698L5.91206 11.2429H5.90918V11.2472L6.69745 16.0013V16.0042H6.70177L45.8192 9.02477H45.8235V9.02045L44.877 4.70796V4.70508L44.8727 4.70652Z" fill="#244D5E"/>
<path d="M50.0139 9.38867H15.3039C13.4211 9.38867 11.8948 10.915 11.8948 12.7978V31.7308C11.8948 33.6136 13.4211 35.1399 15.3039 35.1399H50.0139C51.8967 35.1399 53.423 33.6136 53.423 31.7308V12.7978C53.423 10.915 51.8967 9.38867 50.0139 9.38867Z" fill="white"/>
<path d="M50.0138 10.1797C51.4595 10.1797 52.6318 11.3521 52.6318 12.7977V31.7307C52.6318 33.1763 51.4595 34.3487 50.0138 34.3487H15.3053C13.8596 34.3487 12.6873 33.1763 12.6873 31.7307V12.7977C12.6873 11.3521 13.8596 10.1797 15.3053 10.1797H50.0152M50.0138 8.59741H15.3053C12.9894 8.59741 11.105 10.4818 11.105 12.7977V31.7307C11.105 34.0466 12.9894 35.931 15.3053 35.931H50.0152C52.3312 35.931 54.2155 34.0466 54.2155 31.7307V12.7977C54.2155 10.4818 52.3312 8.59741 50.0152 8.59741H50.0138Z" fill="#244D5E"/>
<path d="M18.6697 24.0564C17.8541 24.0564 17.1924 23.3933 17.1924 22.5777V21.2241C17.1924 20.4085 17.8555 19.7468 18.6697 19.7468H20.0233C20.8389 19.7468 21.502 20.41 21.502 21.2241V22.5777C21.502 23.3933 20.8389 24.0564 20.0233 24.0564H18.6697Z" fill="#00A44E"/>
<path d="M20.0232 19.7485C20.8374 19.7485 21.5005 20.4116 21.5005 21.2243V22.5779C21.5005 23.3921 20.8374 24.0552 20.0232 24.0552H18.6696C17.8555 24.0552 17.1938 23.3921 17.1938 22.5779V21.2243C17.1938 20.4101 17.8569 19.7485 18.6696 19.7485H20.0232ZM20.0232 19.7441H18.6696C17.854 19.7441 17.1895 20.4073 17.1895 21.2243V22.5779C17.1895 23.3949 17.8526 24.0581 18.6696 24.0581H20.0232C20.8403 24.0581 21.5034 23.3935 21.5034 22.5779V21.2243C21.5034 20.4087 20.8388 19.7441 20.0232 19.7441Z" fill="#244D5E"/>
<path d="M40.3948 26.5565C39.9862 26.9651 39.9862 27.6268 40.3948 28.0338C40.599 28.2381 40.8666 28.3402 41.1341 28.3402C41.4017 28.3402 41.6692 28.2381 41.8735 28.0338C45.0208 24.8879 45.0208 19.767 41.8735 16.6226C41.465 16.214 40.8033 16.214 40.3962 16.6226C39.9877 17.0311 39.9877 17.6928 40.3962 18.0998C42.7265 20.4302 42.7265 24.2248 40.3962 26.5565H40.3948Z" fill="#00A44E"/>
<path d="M37.9106 25.3152C37.5021 25.7237 37.5021 26.3854 37.9106 26.7925C38.1149 26.9967 38.3825 27.0989 38.65 27.0989C38.9176 27.0989 39.1851 26.9967 39.3894 26.7925C41.8506 24.3313 41.8506 20.3237 39.3894 17.8625C38.9809 17.454 38.3192 17.454 37.9121 17.8625C37.505 18.2711 37.5036 18.9328 37.9121 19.3398C39.5591 20.9869 39.5591 23.6667 37.9121 25.3138L37.9106 25.3152Z" fill="#00A44E"/>
<path d="M35.4278 25.5527C35.632 25.7569 35.8996 25.859 36.1671 25.859C36.4347 25.859 36.7022 25.7569 36.9065 25.5527C38.683 23.7747 38.683 20.882 36.9065 19.1069C36.498 18.6984 35.8363 18.6984 35.4292 19.1069C35.0221 19.5155 35.0207 20.1771 35.4292 20.5842C36.3901 21.5451 36.3901 23.1116 35.4292 24.0739C35.0207 24.4824 35.0207 25.1456 35.4292 25.5512L35.4278 25.5527Z" fill="#00A44E"/>
<path d="M45.1444 22.3288C45.1444 24.393 44.3403 26.335 42.8774 27.7993C42.4689 28.2078 42.4689 28.8695 42.8774 29.2766C43.0817 29.4809 43.3493 29.583 43.6168 29.583C43.8844 29.583 44.1519 29.4809 44.3562 29.2766C46.2132 27.4195 47.236 24.9512 47.236 22.3288C47.236 19.7065 46.2132 17.2381 44.3562 15.3811C43.9476 14.9726 43.286 14.9726 42.8789 15.3811C42.4704 15.7896 42.4704 16.4513 42.8789 16.8584C44.3418 18.3199 45.1459 20.2632 45.1459 22.3288H45.1444Z" fill="#00A44E"/>
<path d="M18.2381 31.0258H22.857C23.4353 31.0258 23.9028 30.5583 23.9028 29.9801C23.9028 29.4018 23.4353 28.9343 22.857 28.9343H18.2381C17.6599 28.9343 17.1924 29.4018 17.1924 29.9801C17.1924 30.5583 17.6599 31.0258 18.2381 31.0258Z" fill="#00A44E"/>
<path d="M26.1786 31.0258H32.3654C32.9436 31.0258 33.4111 30.5583 33.4111 29.9801C33.4111 29.4018 32.9436 28.9343 32.3654 28.9343H26.1786C25.6003 28.9343 25.1328 29.4018 25.1328 29.9801C25.1328 30.5583 25.6003 31.0258 26.1786 31.0258Z" fill="#00A44E"/>
<path d="M3.7068 2.88114C4.19141 2.88114 4.58426 2.48829 4.58426 2.00368C4.58426 1.51907 4.19141 1.12622 3.7068 1.12622C3.2222 1.12622 2.82935 1.51907 2.82935 2.00368C2.82935 2.48829 3.2222 2.88114 3.7068 2.88114Z" stroke="#00A44E" stroke-width="1.8" stroke-miterlimit="10"/>
<path d="M0.781006 4.44167V6.00239C0.781006 6.1635 0.911905 6.2944 1.07301 6.2944C1.23412 6.2944 1.36502 6.1635 1.36502 6.00239V4.44167C1.36502 4.28056 1.23412 4.14966 1.07301 4.14966C0.911905 4.14966 0.781006 4.28056 0.781006 4.44167Z" fill="#00A44E"/>
<path d="M1.85417 4.92944H0.292007C0.1309 4.92944 0 5.06034 0 5.22145C0 5.38256 0.1309 5.51346 0.292007 5.51346H1.85273C2.01384 5.51346 2.14474 5.38256 2.14474 5.22145C2.14474 5.06034 2.01384 4.92944 1.85273 4.92944H1.85417Z" fill="#00A44E"/>
<path d="M55.1072 3.03788C55.5918 3.03788 55.9847 2.64503 55.9847 2.16042C55.9847 1.67581 55.5918 1.28296 55.1072 1.28296C54.6226 1.28296 54.2297 1.67581 54.2297 2.16042C54.2297 2.64503 54.6226 3.03788 55.1072 3.03788Z" stroke="#00A44E" stroke-width="1.8" stroke-miterlimit="10"/>
<path d="M52.1799 4.59987V6.16059C52.1799 6.3217 52.3108 6.4526 52.4719 6.4526C52.633 6.4526 52.7639 6.3217 52.7639 6.16059V4.59987C52.7639 4.43876 52.633 4.30786 52.4719 4.30786C52.3108 4.30786 52.1799 4.43876 52.1799 4.59987Z" fill="#00A44E"/>
<path d="M53.2546 5.08765H51.6939C51.5328 5.08765 51.4019 5.21855 51.4019 5.37965C51.4019 5.54076 51.5328 5.67166 51.6939 5.67166H53.2546C53.4157 5.67166 53.5466 5.54076 53.5466 5.37965C53.5466 5.21855 53.4157 5.08765 53.2546 5.08765Z" fill="#00A44E"/>
<path d="M8.136 33.8785C8.62061 33.8785 9.01346 33.4856 9.01346 33.001C9.01346 32.5164 8.62061 32.1235 8.136 32.1235C7.6514 32.1235 7.25854 32.5164 7.25854 33.001C7.25854 33.4856 7.6514 33.8785 8.136 33.8785Z" stroke="#00A44E" stroke-width="1.8" stroke-miterlimit="10"/>
<path d="M5.20874 35.4404V37.0012C5.20874 37.1623 5.33964 37.2932 5.50075 37.2932C5.66185 37.2932 5.79275 37.1623 5.79275 37.0012V35.4404C5.79275 35.2793 5.66185 35.1484 5.50075 35.1484C5.33964 35.1484 5.20874 35.2793 5.20874 35.4404Z" fill="#00A44E"/>
<path d="M6.28169 35.9282H4.72096C4.55985 35.9282 4.42896 36.0591 4.42896 36.2202C4.42896 36.3813 4.55985 36.5122 4.72096 36.5122H6.28169C6.44279 36.5122 6.57369 36.3813 6.57369 36.2202C6.57369 36.0591 6.44279 35.9282 6.28169 35.9282Z" fill="#00A44E"/>
</g>
<defs>
<clipPath id="clip0_1_6584">
<rect width="60" height="37" fill="white"/>
</clipPath>
</defs>
</svg>
