<svg width="50" height="42" viewBox="0 0 50 42" fill="none" xmlns="http://www.w3.org/2000/svg">
<g clip-path="url(#clip0_1_6509)">
<path opacity="0.2" d="M22.6475 13.9715C22.6038 18.0531 19.3247 21.3513 15.2648 21.3936C15.2001 21.3936 15.1475 21.4465 15.1475 21.5116C15.1475 21.5766 15.2001 21.6295 15.2648 21.6295C19.454 21.5842 22.8385 18.1816 22.8836 13.97C22.8836 13.905 22.831 13.8521 22.7663 13.8521C22.7016 13.8521 22.649 13.905 22.649 13.97L22.6475 13.9715Z" fill="#405B7D"/>
<path d="M23.1379 18.4401C23.016 18.6594 22.8866 18.8726 22.7483 19.0828C22.5798 19.3384 22.9874 19.5758 23.1544 19.3218C23.2928 19.1116 23.4221 18.8983 23.544 18.6791C23.6854 18.4129 23.2853 18.174 23.1379 18.4401Z" fill="#2F586D"/>
<path d="M30.34 13.8459C30.2182 14.0652 30.0888 14.2784 29.9504 14.4886C29.7819 14.7442 30.1896 14.9816 30.3565 14.7275C30.4949 14.5173 30.6243 14.3041 30.7461 14.0848C30.8875 13.8187 30.4874 13.5797 30.34 13.8459Z" fill="#2F586D"/>
<path d="M12.4653 19.8118C16.1281 19.8118 19.0974 16.8267 19.0974 13.1443C19.0974 9.46194 16.1281 6.47681 12.4653 6.47681C8.80253 6.47681 5.83325 9.46194 5.83325 13.1443C5.83325 16.8267 8.80253 19.8118 12.4653 19.8118Z" fill="#5ABE80"/>
<path d="M12.6924 19.8601C12.578 19.8661 12.4637 19.8692 12.3479 19.8692C8.68513 19.8692 5.71582 16.884 5.71582 13.2017C5.71582 9.51935 8.68513 6.53418 12.3479 6.53418C12.4622 6.53418 12.578 6.53418 12.6924 6.54325C9.03261 6.71565 6.20619 9.83692 6.37617 13.5162C6.53562 16.9536 9.27178 19.7043 12.6924 19.8661V19.8601Z" fill="#00A44E"/>
<path d="M12.1465 6.54179C12.2608 6.53574 12.3751 6.53271 12.4909 6.53271C16.1537 6.53271 19.123 9.51789 19.123 13.2002C19.123 16.8825 16.1537 19.8677 12.4909 19.8677C12.3766 19.8677 12.2608 19.8677 12.1465 19.8586C15.8062 19.6862 18.6326 16.565 18.4627 12.8857C18.3032 9.44832 15.5671 6.69755 12.1465 6.53574V6.54179Z" fill="#00A44E"/>
<path d="M12.4653 18.6579C15.4942 18.6579 17.9497 16.1894 17.9497 13.1443C17.9497 10.0992 15.4942 7.63062 12.4653 7.63062C9.43639 7.63062 6.98096 10.0992 6.98096 13.1443C6.98096 16.1894 9.43639 18.6579 12.4653 18.6579Z" fill="#00A44E"/>
<path d="M14.3982 12.4062C14.3486 12.3397 14.2719 12.2913 14.1666 12.2595H13.8191C13.801 12.1552 13.7725 12.0523 13.7334 11.951C13.6942 11.8512 13.6431 11.7544 13.5799 11.6637H13.7845C13.8883 11.641 13.9665 11.6002 14.0161 11.5412C14.0658 11.4822 14.0883 11.4187 14.0838 11.3491C14.0793 11.2811 14.0492 11.2161 13.9951 11.1541C13.9409 11.0921 13.8612 11.0452 13.7574 11.0134C13.2896 11.018 12.8474 11.0195 12.4307 11.0165C12.0125 11.0149 11.5974 11.0134 11.1852 11.0134C11.122 11.0406 11.0694 11.0815 11.0288 11.1329C10.9882 11.1858 10.9626 11.2418 10.9536 11.3038C10.9445 11.3658 10.9566 11.4248 10.9912 11.4822C11.0258 11.5397 11.0874 11.5866 11.1777 11.6229L11.3071 11.6289C11.4439 11.6471 11.5748 11.6546 11.7012 11.6501C11.8275 11.6455 11.9524 11.6455 12.0757 11.6501C12.1991 11.6546 12.3194 11.6697 12.4397 11.6939C12.5601 11.7196 12.6819 11.7696 12.8038 11.8482C12.9542 11.948 13.058 12.0856 13.1166 12.258H11.456C11.3341 12.2625 11.2409 12.2973 11.1777 12.3639C11.1145 12.4304 11.0799 12.503 11.0754 12.5831C11.0709 12.6633 11.098 12.7389 11.1566 12.813C11.2153 12.8856 11.3071 12.9294 11.4289 12.9431H13.0279C12.9918 12.9975 12.9557 13.0383 12.9196 13.0655C12.8113 13.1654 12.6939 13.2455 12.5691 13.306C12.4442 13.3665 12.3164 13.4149 12.184 13.4481C12.0516 13.4814 11.9193 13.5056 11.7824 13.5192C11.6455 13.5328 11.5071 13.5419 11.3672 13.5464C11.3131 13.56 11.2589 13.5858 11.2078 13.6251C11.1566 13.6644 11.116 13.7113 11.0889 13.7657C11.0619 13.8202 11.0498 13.8806 11.0544 13.9472C11.0589 14.0137 11.0889 14.0833 11.1431 14.1559C11.4154 14.416 11.6861 14.6776 11.9569 14.9392C12.2261 15.2008 12.4984 15.4655 12.7707 15.7301C12.8654 15.78 12.9542 15.7967 13.0354 15.7815C13.1166 15.7649 13.1798 15.7301 13.2264 15.6757C13.2716 15.6212 13.2956 15.5517 13.2971 15.467C13.2986 15.3823 13.2686 15.2976 13.2054 15.2099C12.8474 14.8591 12.4834 14.5082 12.1163 14.1559C12.3705 14.1196 12.5947 14.0561 12.7902 13.9638C12.9858 13.8716 13.1783 13.74 13.3693 13.5676C13.4641 13.4814 13.5453 13.3861 13.6115 13.2803C13.6777 13.1744 13.7288 13.0625 13.7649 12.9461H14.1395C14.2433 12.9234 14.323 12.8811 14.3772 12.819C14.4313 12.757 14.4614 12.6905 14.4659 12.6179C14.4704 12.5453 14.4479 12.4758 14.3982 12.4092V12.4062Z" fill="white"/>
<path d="M7.25484 12.2339C7.70309 9.66762 9.90676 7.78639 12.4985 7.75917C12.7196 7.75917 12.7211 7.40984 12.4985 7.41286C9.75183 7.43857 7.41127 9.42415 6.92241 12.1417C6.8848 12.3594 7.21573 12.4532 7.25484 12.2339Z" fill="white"/>
<path d="M7.18553 13.1005C7.18553 13.0052 7.18854 12.9115 7.19305 12.8162C7.19305 12.7209 7.11483 12.6438 7.02007 12.6438C6.9268 12.6453 6.85009 12.7224 6.84859 12.8162C6.84407 12.91 6.84106 13.0052 6.84106 13.1005C6.84106 13.1958 6.91778 13.2744 7.01405 13.2744C7.11032 13.2744 7.18703 13.1973 7.18703 13.1005H7.18553Z" fill="white"/>
<path d="M12.4773 20.252C10.066 20.252 7.84431 19.0377 6.53565 17.0052C4.9126 14.4949 5.0901 11.0742 6.96735 8.68936C7.02 8.62585 7.08769 8.59106 7.1614 8.59106C7.26368 8.59106 7.35995 8.6576 7.40959 8.75892C7.45923 8.86176 7.44569 8.97669 7.375 9.06591C6.95382 9.59973 6.61838 10.1925 6.37921 10.8292C5.10965 14.2106 6.81242 18.0003 10.1758 19.2766C10.8964 19.5488 11.6545 19.6864 12.4276 19.6864C14.3952 19.6864 16.2483 18.8123 17.5104 17.2865L17.5495 17.2396L17.563 17.2426C17.6066 17.2094 17.6563 17.1912 17.7089 17.1912C17.8112 17.1912 17.912 17.2608 17.9601 17.3621C18.0083 17.4649 17.9932 17.5799 17.921 17.6676C17.4592 18.2301 16.9162 18.7155 16.307 19.1118C15.1593 19.8573 13.8341 20.252 12.4743 20.252H12.4773Z" fill="#2F586D"/>
<path d="M7.16145 8.69536C7.2833 8.69536 7.39611 8.86775 7.29232 8.99781C6.86512 9.53919 6.52367 10.1426 6.27999 10.7898C4.98787 14.2317 6.7147 18.0743 10.1383 19.3748C10.8844 19.6561 11.659 19.7907 12.4277 19.7907C14.3832 19.7907 16.298 18.9166 17.5917 17.353H17.5977C17.6308 17.3121 17.6714 17.2955 17.709 17.2955C17.8323 17.2955 17.9482 17.4679 17.8399 17.5979C17.3856 18.1514 16.8501 18.6308 16.2499 19.021C15.0811 19.7816 13.771 20.1446 12.4743 20.1446C10.1909 20.1446 7.95417 19.0164 6.62144 16.9462C4.99238 14.4283 5.20147 11.0968 7.04713 8.75282C7.08023 8.71199 7.12084 8.69384 7.15845 8.69384M7.16145 8.48364C7.05616 8.48364 6.95839 8.53203 6.88618 8.61974C5.94756 9.81291 5.40754 11.248 5.32331 12.7724C5.23907 14.3103 5.62716 15.7938 6.44695 17.0611C7.77517 19.1238 10.0285 20.3563 12.4758 20.3563C13.8567 20.3563 15.2015 19.9555 16.3657 19.1994C16.984 18.7972 17.5345 18.3042 18.0038 17.7325C18.1016 17.6146 18.1211 17.4543 18.0565 17.3152C17.9903 17.1745 17.8549 17.0838 17.7105 17.0838C17.6503 17.0838 17.5917 17.0989 17.5405 17.1292L17.5134 17.1246L17.4292 17.2169C16.1867 18.717 14.3636 19.5775 12.4262 19.5775C11.6651 19.5775 10.9205 19.4414 10.2105 19.1752C6.90123 17.9185 5.22553 14.1909 6.47553 10.8639C6.7117 10.2378 7.04112 9.65412 7.45478 9.12937C7.54954 9.0099 7.56759 8.84809 7.50141 8.71048C7.43522 8.57287 7.30135 8.48364 7.15845 8.48364H7.16145Z" fill="#2F586D"/>
<path d="M19.0629 15.0966C18.9726 15.0966 18.8854 15.0543 18.8297 14.9847C18.7786 14.9182 18.7605 14.835 18.7816 14.7488C19.1847 13.1443 18.9741 11.4597 18.1859 10.0079C17.0427 7.90137 14.8496 6.59328 12.4609 6.59328C11.3793 6.59328 10.3038 6.87002 9.34865 7.39325L9.32459 7.40686H9.32007C9.28548 7.42199 9.24938 7.42955 9.21327 7.42955C9.08692 7.42955 8.9726 7.33579 8.93951 7.20574C8.90942 7.08476 8.96207 6.96831 9.07338 6.90934C10.1083 6.34073 11.2816 6.03979 12.4639 6.03979C13.049 6.03979 13.6326 6.11238 14.1982 6.25756C16.0289 6.72333 17.5707 7.87869 18.5379 9.50889C19.5051 11.1406 19.7819 13.0521 19.3186 14.8925C19.2885 15.0165 19.1877 15.0981 19.0629 15.0981V15.0966Z" fill="#2F586D"/>
<path d="M12.4638 6.14409C13.0354 6.14409 13.61 6.21516 14.1726 6.35883C17.9015 7.30852 20.1608 11.1164 19.2162 14.8667C19.1951 14.9544 19.1304 14.9922 19.0628 14.9922C18.9605 14.9922 18.8522 14.906 18.8838 14.7745C19.2929 13.1488 19.0763 11.4294 18.2776 9.95797C17.0757 7.74253 14.8043 6.48737 12.4608 6.48737C11.3898 6.48737 10.3037 6.74899 9.29741 7.30096C9.26883 7.31608 9.24025 7.32364 9.21468 7.32364C9.05975 7.32364 8.95746 7.09075 9.12443 7.00304C10.1563 6.43595 11.307 6.1456 12.4653 6.1456M12.4638 5.93237C11.2649 5.93237 10.0751 6.23785 9.02214 6.81552C8.87022 6.89719 8.79651 7.059 8.83863 7.22988C8.88225 7.40681 9.04019 7.53535 9.21468 7.53535C9.2583 7.53535 9.30042 7.52779 9.34103 7.51267H9.35156L9.3997 7.48696C10.3398 6.97129 11.3988 6.69908 12.4623 6.69908C14.8119 6.69908 16.9704 7.986 18.094 10.0593C18.8687 11.4884 19.0778 13.1443 18.6807 14.7231C18.6521 14.8425 18.6762 14.959 18.7469 15.0512C18.8221 15.1465 18.9394 15.2039 19.0628 15.2039C19.2387 15.2039 19.3801 15.0905 19.4208 14.9166C20.391 11.0619 18.0594 7.13007 14.2237 6.15467C13.6491 6.00799 13.0564 5.93389 12.4623 5.93389L12.4638 5.93237Z" fill="#2F586D"/>
<path d="M14.0945 8.53801C14.5051 8.65748 14.8872 8.86163 15.2166 9.13686C15.3009 9.20794 15.4242 9.08544 15.3385 9.01437C14.988 8.71948 14.5788 8.5002 14.1396 8.37166C14.093 8.35957 14.0463 8.3883 14.0358 8.43518C14.0253 8.47903 14.0509 8.5244 14.0945 8.53801Z" fill="white"/>
<path d="M33.8931 19.8118C37.5558 19.8118 40.5251 16.8267 40.5251 13.1443C40.5251 9.46194 37.5558 6.47681 33.8931 6.47681C30.2303 6.47681 27.261 9.46194 27.261 13.1443C27.261 16.8267 30.2303 19.8118 33.8931 19.8118Z" fill="#5ABE80"/>
<path d="M34.1201 19.8601C34.0058 19.8661 33.8914 19.8692 33.7756 19.8692C30.1129 19.8692 27.1436 16.884 27.1436 13.2017C27.1436 9.51935 30.1129 6.53418 33.7756 6.53418C33.8899 6.53418 34.0058 6.53418 34.1201 6.54325C30.4603 6.71565 27.6339 9.83692 27.8039 13.5162C27.9634 16.9536 30.6995 19.7043 34.1201 19.8661V19.8601Z" fill="#00A44E"/>
<path d="M33.5742 6.54179C33.6885 6.53574 33.8029 6.53271 33.9187 6.53271C37.5814 6.53271 40.5508 9.51789 40.5508 13.2002C40.5508 16.8825 37.5814 19.8677 33.9187 19.8677C33.8044 19.8677 33.6885 19.8677 33.5742 19.8586C37.234 19.6862 40.0604 16.565 39.8904 12.8857C39.731 9.44832 36.9948 6.69755 33.5742 6.53574V6.54179Z" fill="#00A44E"/>
<path d="M33.893 18.6579C36.922 18.6579 39.3774 16.1894 39.3774 13.1443C39.3774 10.0992 36.922 7.63062 33.893 7.63062C30.8641 7.63062 28.4087 10.0992 28.4087 13.1443C28.4087 16.1894 30.8641 18.6579 33.893 18.6579Z" fill="#00A44E"/>
<path d="M35.8259 12.4062C35.7763 12.3397 35.6996 12.2913 35.5943 12.2595H35.2468C35.2288 12.1552 35.2002 12.0523 35.1611 11.951C35.122 11.8512 35.0708 11.7544 35.0077 11.6637H35.2122C35.316 11.641 35.3942 11.6002 35.4439 11.5412C35.4935 11.4822 35.5161 11.4187 35.5116 11.3491C35.5071 11.2811 35.477 11.2161 35.4228 11.1541C35.3687 11.0921 35.2889 11.0452 35.1852 11.0134C34.7173 11.018 34.2751 11.0195 33.8584 11.0165C33.4403 11.0149 33.0251 11.0134 32.613 11.0134C32.5498 11.0406 32.4971 11.0815 32.4565 11.1329C32.4159 11.1858 32.3903 11.2418 32.3813 11.3038C32.3723 11.3658 32.3843 11.4248 32.4189 11.4822C32.4535 11.5397 32.5152 11.5866 32.6054 11.6229L32.7348 11.6289C32.8717 11.6471 33.0025 11.6546 33.1289 11.6501C33.2553 11.6455 33.3801 11.6455 33.5034 11.6501C33.6268 11.6546 33.7471 11.6697 33.8675 11.6939C33.9878 11.7196 34.1096 11.7696 34.2315 11.8482C34.3819 11.948 34.4857 12.0856 34.5444 12.258H32.8837C32.7619 12.2625 32.6686 12.2973 32.6054 12.3639C32.5423 12.4304 32.5077 12.503 32.5031 12.5831C32.4986 12.6633 32.5257 12.7389 32.5844 12.813C32.643 12.8856 32.7348 12.9294 32.8566 12.9431H34.4556C34.4195 12.9975 34.3834 13.0383 34.3473 13.0655C34.239 13.1654 34.1217 13.2455 33.9968 13.306C33.872 13.3665 33.7441 13.4149 33.6117 13.4481C33.4794 13.4814 33.347 13.5056 33.2101 13.5192C33.0732 13.5328 32.9349 13.5419 32.795 13.5464C32.7408 13.56 32.6867 13.5858 32.6355 13.6251C32.5844 13.6644 32.5438 13.7113 32.5167 13.7657C32.4896 13.8202 32.4776 13.8806 32.4821 13.9472C32.4866 14.0137 32.5167 14.0833 32.5708 14.1559C32.8431 14.416 33.1139 14.6776 33.3846 14.9392C33.6539 15.2008 33.9261 15.4655 34.1984 15.7301C34.2932 15.78 34.3819 15.7967 34.4631 15.7815C34.5444 15.7649 34.6075 15.7301 34.6542 15.6757C34.6993 15.6212 34.7234 15.5517 34.7249 15.467C34.7264 15.3823 34.6963 15.2976 34.6331 15.2099C34.2751 14.8591 33.9111 14.5082 33.5441 14.1559C33.7983 14.1196 34.0224 14.0561 34.2179 13.9638C34.4135 13.8716 34.606 13.74 34.7971 13.5676C34.8918 13.4814 34.9731 13.3861 35.0392 13.2803C35.1054 13.1744 35.1566 13.0625 35.1927 12.9461H35.5672C35.671 12.9234 35.7507 12.8811 35.8049 12.819C35.859 12.757 35.8891 12.6905 35.8936 12.6179C35.8982 12.5453 35.8756 12.4758 35.8259 12.4092V12.4062Z" fill="white"/>
<path d="M28.684 12.2339C29.1323 9.66762 31.336 7.78639 33.9277 7.75917C34.1488 7.75917 34.1503 7.40984 33.9277 7.41286C31.181 7.43857 28.8405 9.42415 28.3516 12.1417C28.314 12.3594 28.6449 12.4532 28.684 12.2339Z" fill="white"/>
<path d="M28.6133 13.1005C28.6133 13.0052 28.6163 12.9115 28.6208 12.8162C28.6208 12.7209 28.5426 12.6438 28.4478 12.6438C28.3545 12.6453 28.2778 12.7224 28.2763 12.8162C28.2718 12.91 28.2688 13.0052 28.2688 13.1005C28.2688 13.1958 28.3455 13.2744 28.4418 13.2744C28.5381 13.2744 28.6148 13.1973 28.6148 13.1005H28.6133Z" fill="white"/>
<path d="M33.905 20.252C31.4923 20.252 29.272 19.0377 27.9634 17.0052C26.3403 14.4934 26.5178 11.0742 28.3951 8.68936C28.4477 8.62585 28.5154 8.59106 28.5891 8.59106C28.6914 8.59106 28.7877 8.65609 28.8373 8.75892C28.887 8.86176 28.8749 8.97669 28.8042 9.06591C28.3831 9.59973 28.0476 10.1925 27.8084 10.8292C27.1932 12.467 27.2489 14.2484 27.9664 15.8438C28.6839 17.4392 29.976 18.6581 31.6051 19.2766C32.3256 19.5488 33.0837 19.6864 33.8569 19.6864C35.8244 19.6864 37.6776 18.8123 38.9396 17.2865L38.9787 17.2396L38.9923 17.2426C39.0359 17.2094 39.0855 17.1912 39.1382 17.1912C39.2405 17.1912 39.3412 17.2608 39.3894 17.3621C39.4375 17.4649 39.424 17.5799 39.3503 17.6676C38.8885 18.2301 38.347 18.7155 37.7377 19.1118C36.59 19.8573 35.2648 20.252 33.905 20.252Z" fill="#2F586D"/>
<path d="M28.5892 8.69536C28.711 8.69536 28.8238 8.86775 28.7201 8.99781C28.2929 9.53919 27.9514 10.1426 27.7077 10.7898C26.4156 14.2317 28.1424 18.0743 31.566 19.3748C32.3121 19.6561 33.0868 19.7907 33.8554 19.7907C35.8109 19.7907 37.7258 18.9166 39.0194 17.353H39.0254C39.0585 17.3121 39.0991 17.2955 39.1367 17.2955C39.2601 17.2955 39.3759 17.4679 39.2676 17.5979C38.8133 18.1514 38.2778 18.6308 37.6776 19.021C36.5089 19.7816 35.1987 20.1446 33.9021 20.1446C31.6187 20.1446 29.3819 19.0164 28.0492 16.9462C26.4201 14.4283 26.6292 11.0968 28.4749 8.75282C28.508 8.71199 28.5486 8.69384 28.5862 8.69384M28.5892 8.48364C28.4839 8.48364 28.3861 8.53203 28.3139 8.61974C27.3753 9.81291 26.8353 11.248 26.751 12.7724C26.6668 14.3103 27.0549 15.7938 27.8747 17.0611C29.2029 19.1238 31.4562 20.3563 33.9036 20.3563C35.2844 20.3563 36.6292 19.9555 37.7935 19.1994C38.4117 18.7972 38.9622 18.3042 39.4316 17.7325C39.5293 17.6146 39.5489 17.4543 39.4842 17.3152C39.418 17.1745 39.2826 17.0838 39.1382 17.0838C39.0781 17.0838 39.0209 17.0989 38.9683 17.1292L38.9412 17.1246L38.8569 17.2169C37.6145 18.717 35.7914 19.5775 33.8539 19.5775C33.0928 19.5775 32.3482 19.4414 31.6382 19.1752C28.329 17.9185 26.6533 14.1909 27.9033 10.8639C28.1394 10.2363 28.4689 9.65261 28.8825 9.12937C28.9773 9.0099 28.9953 8.84809 28.9291 8.71048C28.863 8.57287 28.7291 8.48364 28.5862 8.48364H28.5892Z" fill="#2F586D"/>
<path d="M40.4906 15.0966C40.3988 15.0966 40.3131 15.0543 40.2574 14.9847C40.2063 14.9182 40.1882 14.835 40.2093 14.7488C40.6124 13.1443 40.4018 11.4597 39.6136 10.0079C38.4704 7.90137 36.2773 6.59328 33.8886 6.59328C32.8071 6.59328 31.7316 6.87002 30.7764 7.39325L30.7523 7.40686H30.7478C30.7132 7.42199 30.6771 7.42955 30.641 7.42955C30.5147 7.42955 30.4003 7.33579 30.3672 7.20574C30.3372 7.08476 30.3898 6.96831 30.5011 6.90934C31.536 6.34073 32.7093 6.03979 33.8916 6.03979C34.4767 6.03979 35.0604 6.11238 35.626 6.25756C37.4566 6.72333 38.9984 7.87869 39.9656 9.50889C40.9328 11.1406 41.2096 13.0521 40.7463 14.8925C40.7162 15.0165 40.6154 15.0981 40.4906 15.0981V15.0966Z" fill="#2F586D"/>
<path d="M33.8916 6.14409C34.4632 6.14409 35.0379 6.21516 35.6004 6.35883C39.3294 7.30852 41.5887 11.1164 40.6441 14.8667C40.623 14.9544 40.5583 14.9922 40.4906 14.9922C40.3883 14.9922 40.28 14.906 40.3116 14.7745C40.7208 13.1488 40.5042 11.4294 39.7054 9.95797C38.5036 7.74253 36.2322 6.48737 33.8886 6.48737C32.8176 6.48737 31.7316 6.74899 30.7253 7.30096C30.6967 7.31608 30.6681 7.32364 30.6425 7.32364C30.4876 7.32364 30.3853 7.09075 30.5523 7.00304C31.5842 6.43595 32.7349 6.1456 33.8931 6.1456M33.8916 5.93237C32.6928 5.93237 31.503 6.23785 30.45 6.81552C30.2966 6.89719 30.2244 7.059 30.2665 7.22988C30.3101 7.40681 30.4681 7.53535 30.6425 7.53535C30.6862 7.53535 30.7283 7.52779 30.7689 7.51267H30.7794L30.8276 7.48696C31.7677 6.97129 32.8267 6.69908 33.8901 6.69908C36.2412 6.69908 38.3983 7.986 39.5219 10.0593C40.2966 11.4884 40.5057 13.1443 40.1086 14.7231C40.08 14.8425 40.104 14.959 40.1762 15.0512C40.2514 15.1465 40.3688 15.2039 40.4921 15.2039C40.6681 15.2039 40.8095 15.0905 40.8501 14.9166C41.3194 13.0505 41.0382 11.1103 40.0574 9.45439C39.0767 7.79848 37.5123 6.62649 35.6531 6.15467C35.0785 6.00799 34.4858 5.93389 33.8916 5.93389V5.93237Z" fill="#2F586D"/>
<path d="M35.5237 8.53801C35.9343 8.65748 36.3164 8.86163 36.6458 9.13686C36.73 9.20794 36.8534 9.08544 36.7677 9.01437C36.4172 8.71948 36.008 8.5002 35.5688 8.37166C35.5222 8.35957 35.4755 8.3883 35.465 8.43518C35.4545 8.47903 35.4801 8.5244 35.5237 8.53801Z" fill="white"/>
<path d="M23.6764 19.2024C28.6867 19.2024 32.7483 15.1191 32.7483 10.082C32.7483 5.04499 28.6867 0.96167 23.6764 0.96167C18.6661 0.96167 14.6045 5.04499 14.6045 10.082C14.6045 15.1191 18.6661 19.2024 23.6764 19.2024Z" fill="#5ABE80"/>
<path d="M23.9893 19.2672C23.8328 19.2763 23.6764 19.2793 23.5184 19.2793C18.5079 19.2793 14.4465 15.1963 14.4465 10.159C14.4465 5.12169 18.5064 1.03711 23.5169 1.03711C23.6734 1.03711 23.8328 1.03711 23.9877 1.04921C18.9832 1.28512 15.1159 5.55419 15.3491 10.5854C15.5672 15.287 19.3096 19.0495 23.9877 19.2703V19.2672H23.9893Z" fill="#00A44E"/>
<path d="M23.2417 1.05092C23.3981 1.04184 23.5546 1.03882 23.7125 1.03882C28.723 1.03882 32.7844 5.12188 32.7844 10.1592C32.7844 15.1965 28.723 19.2795 23.7125 19.2795C23.5561 19.2795 23.3966 19.2795 23.2417 19.2674C28.2462 19.0315 32.1135 14.7624 31.8804 9.73121C31.6623 5.02963 27.9198 1.26717 23.2417 1.04638V1.0494V1.05092Z" fill="#00A44E"/>
<path d="M23.6763 17.6221C27.8184 17.6221 31.1763 14.2463 31.1763 10.082C31.1763 5.91779 27.8184 2.54199 23.6763 2.54199C19.5341 2.54199 16.1763 5.91779 16.1763 10.082C16.1763 14.2463 19.5341 17.6221 23.6763 17.6221Z" fill="#00A44E"/>
<path d="M22.264 9.80679H24.4512C24.4015 9.88089 24.3519 9.93684 24.3022 9.97314C24.1533 10.1092 23.9939 10.2181 23.8224 10.3013C23.6524 10.3845 23.4764 10.4495 23.2959 10.4964C23.1154 10.5433 22.9334 10.575 22.7469 10.5932C22.5604 10.6113 22.3708 10.6234 22.1798 10.631C22.1046 10.6491 22.0324 10.6854 21.9617 10.7383C21.891 10.7913 21.8368 10.8548 21.7992 10.9304C21.7616 11.006 21.7466 11.0877 21.7526 11.1784C21.7586 11.2691 21.7992 11.3644 21.8729 11.4642C22.246 11.8196 22.616 12.1765 22.9846 12.5349C23.3531 12.8933 23.7246 13.2532 24.0962 13.6161C24.227 13.6842 24.3474 13.7084 24.4587 13.6857C24.57 13.663 24.6572 13.6161 24.7189 13.5405C24.7806 13.4649 24.8137 13.3712 24.8167 13.2547C24.8197 13.1398 24.7776 13.0218 24.6903 12.9039C24.2 12.423 23.7036 11.9436 23.2012 11.4627C23.5486 11.4128 23.8555 11.3251 24.1232 11.2011C24.3895 11.0756 24.6542 10.8956 24.9145 10.6582C25.0453 10.5402 25.1551 10.4102 25.2454 10.265C25.3356 10.1198 25.4048 9.96709 25.4545 9.80679H25.9659C26.1088 9.77503 26.2171 9.71757 26.2923 9.63439C26.3675 9.54971 26.4066 9.45746 26.4127 9.35765C26.4187 9.25784 26.3871 9.16257 26.3194 9.07184C26.2517 8.9811 26.1449 8.91456 26.0035 8.87071H25.5282C25.5026 8.72705 25.465 8.58641 25.4124 8.45031C25.3597 8.31269 25.289 8.18264 25.2033 8.05712H25.4831C25.626 8.02536 25.7312 7.96941 25.7989 7.88926C25.8666 7.8076 25.8982 7.7214 25.8922 7.62764C25.8862 7.53389 25.8456 7.44466 25.7719 7.36149C25.6982 7.2768 25.5883 7.21329 25.4454 7.16943C24.8062 7.17548 24.2015 7.177 23.6299 7.17397C23.0583 7.17095 22.4912 7.16943 21.9271 7.16943C21.8398 7.20724 21.7692 7.26168 21.7135 7.33276C21.6578 7.40383 21.6232 7.48247 21.6112 7.56715C21.5992 7.65184 21.6157 7.73199 21.6624 7.81063C21.709 7.88926 21.7947 7.95278 21.9181 8.00268L22.0956 8.01175C22.2821 8.03746 22.4611 8.04654 22.6356 8.04049C22.8086 8.03444 22.98 8.03444 23.147 8.04049C23.314 8.04654 23.4809 8.06771 23.6449 8.10098C23.8089 8.13576 23.9758 8.20532 24.1428 8.31118C24.3474 8.44879 24.4903 8.63631 24.5715 8.87222H22.3001C22.1332 8.87827 22.0053 8.92666 21.9181 9.0174C21.8308 9.10813 21.7842 9.20794 21.7782 9.31682C21.7722 9.4257 21.8098 9.53005 21.8895 9.62986C21.9707 9.72967 22.0941 9.78864 22.261 9.8083L22.264 9.80679Z" fill="white"/>
<path d="M16.5525 8.83588C17.1662 5.32596 20.1792 2.75363 23.7246 2.71431C24.0269 2.71431 24.0284 2.23796 23.7246 2.24098C19.9671 2.27576 16.7661 4.99176 16.0982 8.70886C16.0456 9.00677 16.4999 9.13531 16.5525 8.83437V8.8374V8.83588Z" fill="white"/>
<path d="M16.4562 10.0215C16.4562 9.89148 16.4592 9.76142 16.4667 9.63288C16.4652 9.50283 16.3599 9.39697 16.2305 9.39697C16.1027 9.4 15.9989 9.50434 15.9959 9.63288C15.9899 9.76142 15.9854 9.89148 15.9854 10.0215C15.9854 10.1516 16.0906 10.259 16.2215 10.259C16.3524 10.259 16.4577 10.1531 16.4577 10.0215H16.4562Z" fill="white"/>
<path d="M23.6929 19.7634C20.4077 19.7634 17.3812 18.109 15.5987 15.3401C13.3875 11.9194 13.6282 7.26015 16.1868 4.01034C16.25 3.9317 16.3342 3.89087 16.4215 3.89087C16.5463 3.89087 16.6652 3.97253 16.7253 4.09805C16.787 4.22508 16.7705 4.36723 16.6832 4.47762C16.1041 5.20955 15.6438 6.02465 15.3159 6.90024C13.571 11.5459 15.9116 16.751 20.531 18.5052C21.5208 18.8787 22.5617 19.0678 23.6252 19.0678C26.3282 19.0678 28.8734 17.867 30.6077 15.7726L30.6453 15.7272H30.6589C30.7145 15.6818 30.7792 15.6561 30.8484 15.6561C30.9732 15.6561 31.0981 15.7408 31.1568 15.8679C31.2169 15.9949 31.1989 16.1355 31.1101 16.2444C30.4814 17.0111 29.7413 17.6735 28.9125 18.2118C27.3496 19.2281 25.5445 19.7649 23.6913 19.7649L23.6929 19.7634Z" fill="#2F586D"/>
<path d="M16.4231 3.99521C16.59 3.99521 16.745 4.23112 16.6036 4.40956C16.0184 5.14905 15.5521 5.97625 15.2197 6.86091C13.4522 11.5685 15.8139 16.8251 20.4965 18.602C21.5178 18.9861 22.5768 19.1721 23.6282 19.1721C26.3027 19.1721 28.9216 17.9759 30.692 15.8376H30.701C30.7462 15.7832 30.8003 15.759 30.8545 15.759C31.0229 15.759 31.1809 15.9964 31.035 16.1733C30.4137 16.931 29.6812 17.5873 28.8614 18.1196C27.2624 19.16 25.4709 19.656 23.6974 19.656C20.5747 19.656 17.5136 18.1135 15.692 15.2811C13.4643 11.8362 13.7501 7.28132 16.2742 4.07536C16.3208 4.01941 16.3734 3.99521 16.4276 3.99521M16.4231 3.78349C16.3027 3.78349 16.1899 3.83945 16.1072 3.94077C14.8331 5.55887 14.1021 7.50664 13.9877 9.57691C13.8734 11.6638 14.3999 13.6766 15.5115 15.396C17.3136 18.1967 20.3716 19.8677 23.6944 19.8677C25.5672 19.8677 27.3933 19.3248 28.9727 18.298C29.8121 17.7521 30.5597 17.0837 31.1944 16.3079C31.3103 16.1673 31.3328 15.9858 31.2561 15.8195C31.1794 15.6531 31.0199 15.5473 30.853 15.5473C30.7748 15.5473 30.701 15.5699 30.6364 15.6138L30.6063 15.6093L30.5296 15.703C28.8148 17.7733 26.2997 18.9604 23.6282 18.9604C22.5783 18.9604 21.5494 18.7729 20.5702 18.4039C16.0049 16.6709 13.6929 11.5262 15.4167 6.93501C15.7417 6.07001 16.1959 5.26398 16.769 4.54113C16.8819 4.39898 16.9029 4.21448 16.8232 4.04965C16.745 3.88784 16.5885 3.78198 16.4246 3.78198L16.4231 3.78349Z" fill="#2F586D"/>
<path d="M32.7017 12.7133C32.5904 12.7133 32.4806 12.6604 32.4129 12.5742C32.3497 12.4925 32.3287 12.3897 32.3543 12.2854C32.9093 10.0805 32.6175 7.7683 31.536 5.77213C29.9671 2.87921 26.9526 1.08115 23.672 1.08115C22.1873 1.08115 20.7087 1.46072 19.3955 2.18055L19.3714 2.19416H19.3669C19.3218 2.21382 19.2751 2.2244 19.2285 2.2244C19.0736 2.2244 18.9322 2.10796 18.8916 1.94766C18.854 1.79795 18.9171 1.66034 19.054 1.58624C20.465 0.810453 22.0624 0.400635 23.672 0.400635C24.4677 0.400635 25.2634 0.500443 26.0351 0.697035C31.184 2.00815 34.3142 7.28589 33.0101 12.4623C32.9725 12.6166 32.8537 12.7133 32.6972 12.7133H32.7017Z" fill="#2F586D"/>
<path d="M23.6749 0.506392C24.4571 0.506392 25.2423 0.603176 26.0124 0.799768C31.1132 2.09727 34.2029 7.30847 32.9108 12.4365C32.8822 12.556 32.7934 12.6074 32.7002 12.6074C32.5603 12.6074 32.4129 12.4894 32.4565 12.311C33.016 10.088 32.7197 7.73493 31.6277 5.72213C29.9836 2.69159 26.8774 0.975188 23.6704 0.975188C22.2053 0.975188 20.7206 1.33359 19.3443 2.0882C19.3052 2.10937 19.266 2.11845 19.2299 2.11845C19.0179 2.11845 18.878 1.80087 19.1066 1.67989C20.5191 0.904113 22.091 0.506392 23.6764 0.506392M23.6749 0.294678C22.0473 0.294678 20.4333 0.709033 19.0043 1.49389C18.8268 1.58765 18.7426 1.77668 18.7907 1.97327C18.8419 2.18045 19.0269 2.33167 19.2284 2.33167C19.2826 2.33167 19.3367 2.32109 19.3879 2.30143H19.3954L19.4435 2.27572C20.7402 1.56496 22.2008 1.18841 23.6689 1.18841C26.912 1.18841 29.8903 2.9653 31.4411 5.82496C32.5106 7.79693 32.7979 10.0834 32.2504 12.2611C32.2158 12.4002 32.2444 12.5348 32.3271 12.6422C32.4144 12.7541 32.5528 12.8221 32.6987 12.8221C32.9017 12.8221 33.0657 12.6906 33.1138 12.4879C33.7516 9.9549 33.3695 7.32208 32.0383 5.07489C30.7071 2.82769 28.5846 1.23832 26.0621 0.595615C25.2844 0.395998 24.4812 0.294678 23.6749 0.294678Z" fill="#2F586D"/>
<path d="M25.907 3.7805C26.4696 3.94382 26.9915 4.22208 27.4413 4.59863C27.5571 4.69541 27.7241 4.52906 27.6083 4.43077C27.1284 4.027 26.5704 3.72757 25.9687 3.55215C25.9055 3.53703 25.8423 3.57484 25.8258 3.63835C25.8107 3.69884 25.8453 3.76084 25.9055 3.77899L25.907 3.7805Z" fill="white"/>
<path opacity="0.2" d="M40.4603 15.972C40.4182 20.0505 37.1405 23.3487 33.0836 23.3941C33.019 23.3941 32.9663 23.447 32.9663 23.5121C32.9663 23.5771 33.019 23.63 33.0836 23.63C37.2729 23.5847 40.6573 20.1821 40.7025 15.9705C40.7025 15.9055 40.6498 15.8525 40.5851 15.8525C40.5205 15.8525 40.4678 15.9055 40.4678 15.9705H40.4603V15.972Z" fill="#405B7D"/>
<path d="M25.8184 15.9722C25.8184 15.8422 25.8214 15.7121 25.829 15.5836C25.8275 15.4535 25.7237 15.3492 25.5943 15.3477C25.4664 15.3507 25.3627 15.455 25.3596 15.5836C25.3536 15.7121 25.3491 15.8422 25.3491 15.9722C25.3491 16.1038 25.4544 16.2096 25.5853 16.2096C25.7161 16.2096 25.8214 16.1038 25.8214 15.9722H25.8184Z" fill="#2F586D"/>
<path d="M40.9582 20.4409C40.8363 20.6601 40.707 20.8734 40.5686 21.0836C40.4001 21.3391 40.8077 21.5765 40.9747 21.3225C41.1131 21.1123 41.2425 20.8991 41.3643 20.6798C41.5057 20.4136 41.1056 20.1747 40.9582 20.4409Z" fill="#2F586D"/>
<path d="M10.4169 13.811H38.6509C40.9343 13.811 42.7875 15.6741 42.7875 17.9697V36.3798C42.7875 38.6754 40.9343 40.5385 38.6509 40.5385H10.4169C8.13346 40.5385 6.28027 38.6754 6.28027 36.3798V17.9697C6.28027 15.6741 8.13346 13.811 10.4169 13.811Z" fill="white"/>
<path d="M10.4168 13.8111V14.5672H38.6508C39.5879 14.5672 40.4288 14.9468 41.044 15.5637C41.6577 16.1823 42.0353 17.0276 42.0353 17.9697V36.3798C42.0353 37.3219 41.6577 38.1673 41.044 38.7858C40.4288 39.4028 39.5879 39.7824 38.6508 39.7824H10.4168C9.47964 39.7824 8.63879 39.4028 8.02356 38.7858C7.40985 38.1673 7.03229 37.3219 7.03229 36.3798V17.9697C7.03229 17.0276 7.40985 16.1823 8.02356 15.5637C8.63879 14.9468 9.47964 14.5672 10.4168 14.5672V13.0549C9.06899 13.0549 7.84306 13.6069 6.96009 14.4946C6.07711 15.3823 5.52808 16.6148 5.52808 17.9697V36.3798C5.52808 37.7348 6.07711 38.9673 6.96009 39.8549C7.84306 40.7426 9.06899 41.2946 10.4168 41.2946H38.6508C39.9986 41.2946 41.2245 40.7426 42.1075 39.8549C42.9905 38.9673 43.5395 37.7348 43.5395 36.3798V17.9697C43.5395 16.6148 42.9905 15.3823 42.1075 14.4946C41.2245 13.6069 39.9986 13.0549 38.6508 13.0549H10.4168V13.8111Z" fill="#2F586D"/>
<path d="M10.9281 22.8091H6.25757V23.3021H10.9281V22.8091Z" fill="#2F586D"/>
<path d="M44.1094 21.7126H36.3025C35.3688 21.7126 34.6118 22.4737 34.6118 23.4124V26.5745C34.6118 27.5133 35.3688 28.2743 36.3025 28.2743H44.1094C45.0432 28.2743 45.8001 27.5133 45.8001 26.5745V23.4124C45.8001 22.4737 45.0432 21.7126 44.1094 21.7126Z" fill="#00A44E"/>
<path d="M44.1006 27.8477H38.6944C37.9198 27.8477 37.1376 27.878 36.3644 27.8477C34.9565 27.7918 35.0377 26.5018 35.0377 25.4735C35.0377 24.5813 34.7398 22.9889 35.5732 22.3885C36.1403 21.9832 37.121 22.142 37.7753 22.142C39.8226 22.142 41.8743 22.1027 43.9201 22.142C44.5533 22.1541 45.14 22.4112 45.3265 23.0842C45.4423 23.5106 45.3746 24.0187 45.3746 24.4497C45.3746 25.5884 45.7702 27.757 44.1006 27.8477C43.5575 27.878 43.5545 28.7324 44.1006 28.7021C44.9384 28.6568 45.6845 28.2243 46.0365 27.4349C46.2546 26.9449 46.2245 26.4383 46.2245 25.9105C46.2245 24.852 46.4938 23.3065 45.9342 22.3522C45.3325 21.3209 44.2916 21.2937 43.2552 21.2937H39.2991C38.3214 21.2937 37.3406 21.2619 36.3659 21.2937C34.9911 21.336 34.1983 22.3689 34.1893 23.6875V25.6096C34.1893 26.0769 34.1367 26.5926 34.245 27.0523C34.5428 28.3332 35.6755 28.7097 36.8277 28.7097H44.1036C44.6481 28.7037 44.6481 27.8492 44.1036 27.8492L44.1006 27.8477Z" fill="#2F586D"/>
<path d="M11.8366 24.0746C12.3965 24.0746 12.8504 23.6183 12.8504 23.0554C12.8504 22.4925 12.3965 22.0361 11.8366 22.0361C11.2767 22.0361 10.8228 22.4925 10.8228 23.0554C10.8228 23.6183 11.2767 24.0746 11.8366 24.0746Z" fill="#00A44E"/>
<path d="M16.0635 25.2375H6.51172V25.7305H16.0635V25.2375Z" fill="#2F586D"/>
<path d="M16.8471 26.5034C17.407 26.5034 17.8609 26.047 17.8609 25.4841C17.8609 24.9212 17.407 24.4648 16.8471 24.4648C16.2872 24.4648 15.8333 24.9212 15.8333 25.4841C15.8333 26.047 16.2872 26.5034 16.8471 26.5034Z" fill="#00A44E"/>
<path d="M14.1592 27.6663H6.25757V28.1593H14.1592V27.6663Z" fill="#2F586D"/>
<path d="M14.8798 28.9321C15.4397 28.9321 15.8936 28.4757 15.8936 27.9128C15.8936 27.3499 15.4397 26.8936 14.8798 26.8936C14.3199 26.8936 13.866 27.3499 13.866 27.9128C13.866 28.4757 14.3199 28.9321 14.8798 28.9321Z" fill="#00A44E"/>
<path d="M16.2845 30.095H6.76587V30.588H16.2845V30.095Z" fill="#2F586D"/>
<path d="M16.8471 31.3608C17.407 31.3608 17.8609 30.9044 17.8609 30.3415C17.8609 29.7786 17.407 29.3223 16.8471 29.3223C16.2872 29.3223 15.8333 29.7786 15.8333 30.3415C15.8333 30.9044 16.2872 31.3608 16.8471 31.3608Z" fill="#00A44E"/>
<path d="M1.30427 14.0471C1.94977 14.0471 2.47304 13.521 2.47304 12.872C2.47304 12.2231 1.94977 11.697 1.30427 11.697C0.658775 11.697 0.135498 12.2231 0.135498 12.872C0.135498 13.521 0.658775 14.0471 1.30427 14.0471Z" stroke="#00A44E" stroke-width="1.8" stroke-miterlimit="10"/>
<path d="M1.53574 38.2611C1.88797 38.2611 2.17352 37.9741 2.17352 37.62C2.17352 37.2658 1.88797 36.9788 1.53574 36.9788C1.1835 36.9788 0.897949 37.2658 0.897949 37.62C0.897949 37.9741 1.1835 38.2611 1.53574 38.2611Z" stroke="#2F586D" stroke-width="0.2" stroke-miterlimit="10"/>
<path d="M1.06055 17.7247V19.6135C1.06055 19.8086 1.21849 19.9674 1.41253 19.9674C1.60658 19.9674 1.76452 19.8086 1.76452 19.6135V17.7247C1.76452 17.5296 1.60658 17.3708 1.41253 17.3708C1.21849 17.3708 1.06055 17.5296 1.06055 17.7247Z" fill="#00A44E"/>
<path d="M2.35261 18.3147H0.472347C0.278304 18.3147 0.120361 18.4735 0.120361 18.6686C0.120361 18.8636 0.278304 19.0224 0.472347 19.0224H2.35111C2.54515 19.0224 2.70309 18.8636 2.70309 18.6686C2.70309 18.4735 2.54515 18.3147 2.35111 18.3147H2.35261Z" fill="#00A44E"/>
<path d="M46.1402 11.7831C46.4925 11.7831 46.778 11.496 46.778 11.1419C46.778 10.7878 46.4925 10.5007 46.1402 10.5007C45.788 10.5007 45.5024 10.7878 45.5024 11.1419C45.5024 11.496 45.788 11.7831 46.1402 11.7831Z" fill="#00A44E"/>
<path d="M48.9456 32.6054C49.4524 32.6054 49.8632 32.1924 49.8632 31.683C49.8632 31.1735 49.4524 30.7605 48.9456 30.7605C48.4389 30.7605 48.0281 31.1735 48.0281 31.683C48.0281 32.1924 48.4389 32.6054 48.9456 32.6054Z" stroke="#00A44E" stroke-width="1.8" stroke-miterlimit="10"/>
<path d="M45.8845 34.2477V35.8884C45.8845 36.0578 46.0214 36.1954 46.1899 36.1954C46.3583 36.1954 46.4952 36.0578 46.4952 35.8884V34.2477C46.4952 34.0783 46.3583 33.9407 46.1899 33.9407C46.0214 33.9407 45.8845 34.0783 45.8845 34.2477Z" fill="#00A44E"/>
<path d="M47.0068 34.7603H45.3747C45.2062 34.7603 45.0693 34.8979 45.0693 35.0672C45.0693 35.2366 45.2062 35.3742 45.3747 35.3742H47.0068C47.1752 35.3742 47.3121 35.2366 47.3121 35.0672C47.3121 34.8979 47.1752 34.7603 47.0068 34.7603Z" fill="#00A44E"/>
</g>
<defs>
<clipPath id="clip0_1_6509">
<rect width="50" height="41" fill="white" transform="translate(0 0.294678)"/>
</clipPath>
</defs>
</svg>
