<svg width="25" height="25" viewBox="0 0 25 25" fill="none" xmlns="http://www.w3.org/2000/svg">
<path d="M17.8499 23.0598H6.64985C4.82984 23.0598 3.16985 21.6598 2.86985 19.8598L1.53984 11.8999C1.32984 10.6599 1.92985 9.06987 2.91985 8.27987L9.84986 2.72982C11.1899 1.64982 13.2998 1.65983 14.6498 2.73983L21.5799 8.27987C22.5599 9.06987 23.1599 10.6599 22.9599 11.8999L21.6299 19.8598C21.3299 21.6298 19.6399 23.0598 17.8499 23.0598ZM12.2399 3.43984C11.7099 3.43984 11.1798 3.59981 10.7898 3.90981L3.85985 9.45986C3.28985 9.91986 2.89986 10.9398 3.01986 11.6598L4.34986 19.6198C4.52986 20.6698 5.57984 21.5598 6.64985 21.5598H17.8499C18.9199 21.5598 19.9698 20.6698 20.1498 19.6098L21.4798 11.6499C21.5998 10.9299 21.1999 9.89985 20.6399 9.44985L13.7099 3.90981C13.3099 3.59981 12.7799 3.43984 12.2399 3.43984Z" fill="#07662D"/>
<path d="M12.25 16.75C10.46 16.75 9 15.29 9 13.5C9 11.71 10.46 10.25 12.25 10.25C14.04 10.25 15.5 11.71 15.5 13.5C15.5 15.29 14.04 16.75 12.25 16.75ZM12.25 11.75C11.29 11.75 10.5 12.54 10.5 13.5C10.5 14.46 11.29 15.25 12.25 15.25C13.21 15.25 14 14.46 14 13.5C14 12.54 13.21 11.75 12.25 11.75Z" fill="#07662D"/>
</svg>
