<svg width="25" height="25" viewBox="0 0 25 25" fill="none" xmlns="http://www.w3.org/2000/svg">
<path d="M12.87 14.03C12.85 14.03 12.82 14.03 12.8 14.03C12.77 14.03 12.73 14.03 12.7 14.03C10.43 13.96 8.73001 12.19 8.73001 10.01C8.73001 7.78998 10.54 5.97998 12.76 5.97998C14.98 5.97998 16.79 7.78998 16.79 10.01C16.78 12.2 15.07 13.96 12.9 14.03C12.88 14.03 12.88 14.03 12.87 14.03ZM12.75 7.46998C11.35 7.46998 10.22 8.60998 10.22 9.99998C10.22 11.37 11.29 12.48 12.65 12.53C12.68 12.52 12.78 12.52 12.88 12.53C14.22 12.46 15.27 11.36 15.28 9.99998C15.28 8.60998 14.15 7.46998 12.75 7.46998Z" fill="#9E9E9E"/>
<path d="M12.75 23.2498C10.06 23.2498 7.48999 22.2498 5.49999 20.4298C5.31999 20.2698 5.23999 20.0298 5.25999 19.7998C5.38999 18.6098 6.12999 17.4998 7.35999 16.6798C10.34 14.6998 15.17 14.6998 18.14 16.6798C19.37 17.5098 20.11 18.6098 20.24 19.7998C20.27 20.0398 20.18 20.2698 20 20.4298C18.01 22.2498 15.44 23.2498 12.75 23.2498ZM6.82999 19.5998C8.48999 20.9898 10.58 21.7498 12.75 21.7498C14.92 21.7498 17.01 20.9898 18.67 19.5998C18.49 18.9898 18.01 18.3998 17.3 17.9198C14.84 16.2798 10.67 16.2798 8.18999 17.9198C7.47999 18.3998 7.00999 18.9898 6.82999 19.5998Z" fill="#9E9E9E"/>
<path d="M12.75 23.25C6.82 23.25 2 18.43 2 12.5C2 6.57 6.82 1.75 12.75 1.75C18.68 1.75 23.5 6.57 23.5 12.5C23.5 18.43 18.68 23.25 12.75 23.25ZM12.75 3.25C7.65 3.25 3.5 7.4 3.5 12.5C3.5 17.6 7.65 21.75 12.75 21.75C17.85 21.75 22 17.6 22 12.5C22 7.4 17.85 3.25 12.75 3.25Z" fill="#9E9E9E"/>
</svg>
