<svg width="25" height="25" viewBox="0 0 25 25" fill="none" xmlns="http://www.w3.org/2000/svg">
<path d="M16.22 23.25H8.22C4.8 23.25 3.47 21.92 3.47 18.5V10.5C3.47 10.09 3.81 9.75 4.22 9.75H20.22C20.63 9.75 20.97 10.09 20.97 10.5V18.5C20.97 21.92 19.64 23.25 16.22 23.25ZM4.97 11.25V18.5C4.97 21.08 5.64 21.75 8.22 21.75H16.22C18.8 21.75 19.47 21.08 19.47 18.5V11.25H4.97Z" fill="#9E9E9E"/>
<path d="M19.75 11.25H4.75C3 11.25 2 10.25 2 8.5V7.5C2 5.75 3 4.75 4.75 4.75H19.75C21.45 4.75 22.5 5.8 22.5 7.5V8.5C22.5 10.2 21.45 11.25 19.75 11.25ZM4.75 6.25C3.84 6.25 3.5 6.59 3.5 7.5V8.5C3.5 9.41 3.84 9.75 4.75 9.75H19.75C20.63 9.75 21 9.38 21 8.5V7.5C21 6.62 20.63 6.25 19.75 6.25H4.75Z" fill="#9E9E9E"/>
<path d="M11.89 6.24988H6.37C6.16 6.24988 5.96 6.15988 5.82 6.00988C5.21 5.33988 5.23 4.30988 5.87 3.66988L7.29 2.24988C7.95 1.58988 9.04 1.58988 9.7 2.24988L12.42 4.96988C12.63 5.17988 12.7 5.50988 12.58 5.78988C12.47 6.06988 12.2 6.24988 11.89 6.24988ZM6.92 4.74988H10.09L8.64 3.30988C8.56 3.22988 8.43 3.22988 8.35 3.30988L6.93 4.72988C6.93 4.73988 6.92 4.73988 6.92 4.74988Z" fill="#9E9E9E"/>
<path d="M18.12 6.24988H12.6C12.3 6.24988 12.02 6.06988 11.91 5.78988C11.79 5.50988 11.86 5.18988 12.07 4.96988L14.79 2.24988C15.45 1.58988 16.54 1.58988 17.2 2.24988L18.62 3.66988C19.26 4.30988 19.29 5.33988 18.67 6.00988C18.53 6.15988 18.33 6.24988 18.12 6.24988ZM14.42 4.74988H17.59C17.58 4.73988 17.58 4.73988 17.57 4.72988L16.15 3.30988C16.07 3.22988 15.94 3.22988 15.86 3.30988L14.42 4.74988Z" fill="#9E9E9E"/>
<path d="M10.19 17.4C9.91 17.4 9.62 17.33 9.36 17.19C8.79 16.88 8.44 16.29 8.44 15.65V10.5C8.44 10.09 8.78 9.75 9.19 9.75H15.23C15.64 9.75 15.98 10.09 15.98 10.5V15.63C15.98 16.28 15.63 16.87 15.06 17.17C14.49 17.48 13.8 17.44 13.26 17.08L12.37 16.48C12.29 16.42 12.18 16.42 12.09 16.48L11.15 17.1C10.86 17.3 10.52 17.4 10.19 17.4ZM9.94 11.25V15.64C9.94 15.77 10.02 15.83 10.07 15.86C10.12 15.89 10.22 15.92 10.33 15.85L11.27 15.23C11.86 14.84 12.62 14.84 13.2 15.23L14.09 15.83C14.2 15.9 14.3 15.87 14.35 15.84C14.4 15.81 14.48 15.75 14.48 15.62V11.24H9.94V11.25Z" fill="#9E9E9E"/>
</svg>
