<svg width="25" height="25" viewBox="0 0 25 25" fill="none" xmlns="http://www.w3.org/2000/svg">
<path d="M17.1299 23.2502H3.98993C3.03993 23.2502 2.15993 22.8103 1.58993 22.0403C1.00993 21.2603 0.83994 20.2802 1.12994 19.3502L5.33993 5.82019C5.71993 4.56019 6.87995 3.7002 8.19995 3.7002H20.4999C21.7099 3.7002 22.7999 4.42028 23.2599 5.54028C23.5099 6.12028 23.5599 6.7803 23.4099 7.4303L20.0399 20.9602C19.7199 22.3102 18.5199 23.2502 17.1299 23.2502ZM8.20993 5.21021C7.55993 5.21021 6.96993 5.64026 6.77993 6.27026L2.56994 19.8003C2.42994 20.2703 2.50993 20.7603 2.80993 21.1603C3.08993 21.5403 3.52994 21.7603 3.99994 21.7603H17.1399C17.83 21.7603 18.4299 21.2902 18.5899 20.6202L21.9599 7.0802C22.0399 6.7502 22.0199 6.42025 21.8899 6.13025C21.65 5.56025 21.1199 5.2002 20.5099 5.2002H8.20993V5.21021Z" fill="#9E9E9E"/>
<path d="M21.53 23.25H16.75C16.34 23.25 16 22.91 16 22.5C16 22.09 16.34 21.75 16.75 21.75H21.53C21.94 21.75 22.32 21.58 22.6 21.28C22.88 20.98 23.02 20.58 22.99 20.17L22 6.55002C21.97 6.14002 22.28 5.77997 22.69 5.74997C23.1 5.72997 23.46 6.02991 23.49 6.43991L24.48 20.06C24.54 20.88 24.25 21.7 23.69 22.3C23.14 22.91 22.35 23.25 21.53 23.25Z" fill="#9E9E9E"/>
<path d="M10.4298 7.62971C10.3698 7.62971 10.3098 7.61969 10.2498 7.60969C9.84977 7.50969 9.59979 7.10966 9.69979 6.69966L10.7398 2.37971C10.8398 1.97971 11.2398 1.72966 11.6498 1.82966C12.0498 1.92966 12.2998 2.3297 12.1998 2.7397L11.1598 7.05977C11.0798 7.39977 10.7698 7.62971 10.4298 7.62971Z" fill="#9E9E9E"/>
<path d="M17.1299 7.63974C17.0799 7.63974 17.0199 7.63972 16.9699 7.61972C16.5699 7.52972 16.31 7.12971 16.39 6.72971L17.3299 2.38974C17.4199 1.97974 17.8199 1.72979 18.2199 1.80979C18.6199 1.88979 18.8799 2.29968 18.7999 2.69968L17.8599 7.03977C17.7899 7.39977 17.4799 7.63974 17.1299 7.63974Z" fill="#9E9E9E"/>
<path d="M16.4502 13.25H8.4502C8.0402 13.25 7.7002 12.91 7.7002 12.5C7.7002 12.09 8.0402 11.75 8.4502 11.75H16.4502C16.8602 11.75 17.2002 12.09 17.2002 12.5C17.2002 12.91 16.8602 13.25 16.4502 13.25Z" fill="#9E9E9E"/>
<path d="M15.4502 17.25H7.4502C7.0402 17.25 6.7002 16.91 6.7002 16.5C6.7002 16.09 7.0402 15.75 7.4502 15.75H15.4502C15.8602 15.75 16.2002 16.09 16.2002 16.5C16.2002 16.91 15.8602 17.25 15.4502 17.25Z" fill="#9E9E9E"/>
</svg>
