<svg width="20" height="28" viewBox="0 0 20 28" fill="none" xmlns="http://www.w3.org/2000/svg">
<path d="M0.957008 0.810059C0.428467 0.810059 0 1.48188 0 2.31061C0 3.13935 0.428467 3.81117 0.957008 3.81117H18.8212C19.3497 3.81117 19.7782 3.13935 19.7782 2.31061C19.7782 1.48188 19.3497 0.810059 18.8212 0.810059H0.957008Z" fill="#1E1E1E"/>
<path d="M0.957008 12.8145C0.428467 12.8145 0 13.4863 0 14.3151C0 15.1438 0.428467 15.8156 0.957008 15.8156H8.61307C9.14161 15.8156 9.57008 15.1438 9.57008 14.3151C9.57008 13.4863 9.14161 12.8145 8.61307 12.8145H0.957008Z" fill="#1E1E1E"/>
<path d="M0.957008 24.8189C0.428467 24.8189 0 25.4908 0 26.3195C0 27.1482 0.428467 27.8201 0.957008 27.8201H18.8212C19.3497 27.8201 19.7782 27.1482 19.7782 26.3195C19.7782 25.4908 19.3497 24.8189 18.8212 24.8189H0.957008Z" fill="#1E1E1E"/>
</svg>
