<svg width="30" height="30" viewBox="0 0 30 30" fill="none" xmlns="http://www.w3.org/2000/svg">
<path d="M5.625 8.125V8.125C5.625 6.74429 6.74429 5.625 8.125 5.625L22.4107 5.625C22.6102 5.625 22.71 5.625 22.7901 5.65306C22.9338 5.70331 23.0467 5.81624 23.0969 5.95986C23.125 6.04005 23.125 6.13979 23.125 6.33929V6.33929C23.125 7.53624 23.125 8.13472 22.9566 8.61584C22.6551 9.47758 21.9776 10.1551 21.1158 10.4566C20.6347 10.625 20.0362 10.625 18.8393 10.625H18.75M5.625 8.125V8.125C5.625 9.50571 6.74429 10.625 8.125 10.625L22.375 10.625C23.3178 10.625 23.7892 10.625 24.0821 10.9179C24.375 11.2108 24.375 11.6822 24.375 12.625L24.375 15.625M5.625 8.125L5.625 20.375C5.625 22.2606 5.625 23.2034 6.21079 23.7892C6.79657 24.375 7.73938 24.375 9.625 24.375L22.375 24.375C23.3178 24.375 23.7892 24.375 24.0821 24.0821C24.375 23.7892 24.375 23.3178 24.375 22.375V20.625M24.375 20.625H21.375C20.4322 20.625 19.9608 20.625 19.6679 20.3321C19.375 20.0392 19.375 19.5678 19.375 18.625V17.625C19.375 16.6822 19.375 16.2108 19.6679 15.9179C19.9608 15.625 20.4322 15.625 21.375 15.625H24.375M24.375 20.625V15.625" stroke="black" stroke-width="2"/>
</svg>
