<svg width="29" height="28" viewBox="0 0 29 28" fill="none" xmlns="http://www.w3.org/2000/svg">
<path d="M15.4688 10.6595C15.5293 10.2495 15.2384 9.86922 14.8192 9.8101C14.3999 9.75098 14.011 10.0354 13.9506 10.4454L12.7829 18.3635C12.7225 18.7735 13.0133 19.1537 13.4326 19.2128C13.8519 19.272 14.2407 18.9875 14.3012 18.5776L15.4688 10.6595Z" fill="#2D2D2D"/>
<path fill-rule="evenodd" clip-rule="evenodd" d="M4.25217 10.5919C1.90282 12.3102 1.42278 15.5655 3.17998 17.8628C3.68943 18.5288 4.54435 18.8501 5.37885 18.6893L5.92126 18.5847C7.20228 18.3377 8.20613 19.6501 7.60194 20.7819L7.34611 21.2612C6.95251 21.9985 7.0262 22.8912 7.53565 23.5573C9.29285 25.8546 12.6219 26.324 14.9712 24.6057L24.0704 17.9507C26.4198 16.2324 26.8998 12.9772 25.1426 10.6799C24.6332 10.0138 23.7782 9.69249 22.9437 9.85338L22.4013 9.95795C21.1203 10.2049 20.1165 8.89253 20.7207 7.76069L20.9765 7.28145C21.3701 6.54413 21.2964 5.65142 20.7869 4.98538C19.0297 2.68807 15.7007 2.21866 13.3514 3.93693L4.25217 10.5919ZM4.40837 16.9643C3.1586 15.3304 3.50001 13.0152 5.17094 11.7931L14.2701 5.13812C15.9411 3.91603 18.3088 4.24989 19.5585 5.8838C19.7146 6.08788 19.7372 6.36141 19.6166 6.58733L19.3608 7.06658C18.1611 9.31403 20.1544 11.92 22.6981 11.4296L23.2405 11.325C23.4962 11.2757 23.7581 11.3742 23.9142 11.5783C25.164 13.2122 24.8226 15.5275 23.1516 16.7495L14.0524 23.4045C12.3815 24.6266 10.0138 24.2928 8.76405 22.6588C8.60795 22.4548 8.58537 22.1812 8.70597 21.9553L8.9618 21.4761C10.1615 19.2286 8.16822 16.6226 5.62453 17.113L5.08212 17.2176C4.82642 17.2669 4.56447 17.1684 4.40837 16.9643Z" fill="#2D2D2D"/>
<path d="M9.04803 14.2648C9.38631 14.707 10.0272 14.7974 10.4795 14.4666C10.9318 14.1358 11.0242 13.5091 10.6859 13.0669C10.3476 12.6246 9.70672 12.5342 9.25444 12.865C8.80216 13.1958 8.70975 13.8225 9.04803 14.2648Z" fill="#2D2D2D"/>
<path d="M17.6367 15.4758C17.975 15.918 18.6159 16.0084 19.0681 15.6776C19.5204 15.3468 19.6128 14.7201 19.2746 14.2779C18.9363 13.8356 18.2954 13.7453 17.8431 14.076C17.3908 14.4068 17.2984 15.0335 17.6367 15.4758Z" fill="#2D2D2D"/>
</svg>
