<svg width="19" height="17" viewBox="0 0 19 17" fill="none" xmlns="http://www.w3.org/2000/svg">
<path fill-rule="evenodd" clip-rule="evenodd" d="M16.4954 1.85764C15.4456 0.746801 14.2771 0.40315 13.1796 0.486517C12.1119 0.56763 11.1503 1.04826 10.448 1.51056C9.89416 1.87514 9.10582 1.87514 8.55197 1.51057C7.84966 1.04827 6.88808 0.567641 5.82034 0.48653C4.72292 0.403164 3.55434 0.746813 2.50463 1.85764C1.26538 3.16906 0.876573 4.78796 1.0327 6.42551C1.18703 8.0442 1.87125 9.68968 2.78382 11.1477C3.69882 12.6096 4.86764 13.9222 6.04022 14.8753C7.18702 15.8074 8.43479 16.4746 9.50001 16.4746C10.5652 16.4746 11.813 15.8074 12.9598 14.8753C14.1324 13.9222 15.3012 12.6096 16.2162 11.1477C17.1288 9.68968 17.813 8.04419 17.9673 6.42551C18.1234 4.78796 17.7346 3.16906 16.4954 1.85764ZM11.0833 2.54987C11.7044 2.14105 12.4731 1.77425 13.2662 1.714C14.0297 1.65601 14.8526 1.87706 15.6485 2.71936C16.5999 3.72616 16.9149 4.96272 16.787 6.30434C16.6573 7.66483 16.0696 9.12225 15.2215 10.4773C14.3758 11.8285 13.2951 13.0393 12.2284 13.9063C11.1359 14.7943 10.1546 15.2438 9.50001 15.2438C8.84539 15.2438 7.86407 14.7943 6.77158 13.9063C5.70488 13.0393 4.62419 11.8285 3.7785 10.4773C2.93037 9.12225 2.34271 7.66483 2.213 6.30434C2.08509 4.96272 2.40008 3.72617 3.35148 2.71937C4.14743 1.87707 4.97029 1.65602 5.73374 1.71402C6.52687 1.77427 7.29559 2.14106 7.91665 2.54987C8.85832 3.16973 10.1417 3.16973 11.0833 2.54987Z" fill="#2D2D2D" stroke="#2D2D2D" stroke-width="0.5" stroke-linecap="round"/>
</svg>
