<svg width="20" height="20" viewBox="0 0 20 20" fill="none" xmlns="http://www.w3.org/2000/svg">
<path fill-rule="evenodd" clip-rule="evenodd" d="M15.7209 4.26977C16.0851 4.39727 16.3284 4.7406 16.3284 5.12643V10.7706C16.3284 12.3481 15.7551 13.8539 14.7426 15.0206C14.2334 15.6081 13.5892 16.0656 12.9051 16.4356L9.94008 18.0373L6.97008 16.4348C6.28508 16.0648 5.64008 15.6081 5.13008 15.0198C4.11675 13.8531 3.54175 12.3464 3.54175 10.7673V5.12643C3.54175 4.7406 3.78508 4.39727 4.14925 4.26977L9.63425 2.34227C9.82925 2.27393 10.0417 2.27393 10.2359 2.34227L15.7209 4.26977Z" stroke="#0601B4" stroke-linecap="round" stroke-linejoin="round"/>
<path opacity="0.4" d="M7.7688 9.93133L9.34547 11.5088L12.5938 8.2605" stroke="#0601B4" stroke-linecap="round" stroke-linejoin="round"/>
</svg>
